<?xml version="1.0" encoding="UTF-8" standalone="no"?>
<!-- Generator: Adobe Illustrator 19.0.0, SVG Export Plug-In . SVG Version: 6.00 Build 0)  -->

<svg
   xmlns:dc="http://purl.org/dc/elements/1.1/"
   xmlns:cc="http://creativecommons.org/ns#"
   xmlns:rdf="http://www.w3.org/1999/02/22-rdf-syntax-ns#"
   xmlns:svg="http://www.w3.org/2000/svg"
   xmlns="http://www.w3.org/2000/svg"
   xmlns:sodipodi="http://sodipodi.sourceforge.net/DTD/sodipodi-0.dtd"
   xmlns:inkscape="http://www.inkscape.org/namespaces/inkscape"
   version="1.1"
   id="Capa_1"
   x="0px"
   y="0px"
   viewBox="0 0 480 480"
   style="enable-background:new 0 0 480 480;"
   xml:space="preserve"
   sodipodi:docname="analytics.svg"
   inkscape:export-filename="C:\Users\TS127TT\Documents\01_EY_Data_Science\06_Convert_ppt_to_pdf\images_and_svgs\analytics.png"
   inkscape:export-xdpi="234.17"
   inkscape:export-ydpi="234.17"
   inkscape:version="0.92.2 (5c3e80d, 2017-08-06)"><metadata
     id="metadata85"><rdf:RDF><cc:Work
         rdf:about=""><dc:format>image/svg+xml</dc:format><dc:type
           rdf:resource="http://purl.org/dc/dcmitype/StillImage" /><dc:title></dc:title></cc:Work></rdf:RDF></metadata><defs
     id="defs83" /><sodipodi:namedview
     pagecolor="#ffffff"
     bordercolor="#666666"
     borderopacity="1"
     objecttolerance="10"
     gridtolerance="10"
     guidetolerance="10"
     inkscape:pageopacity="0"
     inkscape:pageshadow="2"
     inkscape:window-width="1920"
     inkscape:window-height="1000"
     id="namedview81"
     showgrid="false"
     inkscape:pagecheckerboard="true"
     showguides="false"
     inkscape:zoom="1.3906433"
     inkscape:cx="332.14389"
     inkscape:cy="302.70798"
     inkscape:window-x="-11"
     inkscape:window-y="-11"
     inkscape:window-maximized="1"
     inkscape:current-layer="Capa_1" /><path
     style="fill:#ffffff"
     d="M40,424h149.392l-11.432,40H136v16h48h112h48v-16h-41.968L290.6,424H440c22.056,0,40-17.944,40-40V40  c0-22.056-17.944-40-40-40H40C17.944,0,0,17.944,0,40v344C0,406.056,17.944,424,40,424z M285.392,464h-90.784l11.432-40h67.928  L285.392,464z M440,408H280h-80H40c-13.232,0-24-10.768-24-24v-8h448v8C464,397.232,453.232,408,440,408z M40,16h400  c13.232,0,24,10.768,24,24v320H16V40C16,26.768,26.768,16,40,16z"
     id="path2"
     inkscape:export-xdpi="234.17"
     inkscape:export-ydpi="234.17" /><path
     style="fill:#E07A5F;"
     d="M208,48.264V144l57.36-76.488C248.064,56.184,228.496,49.624,208,48.264z"
     id="path4"
     inkscape:export-xdpi="234.17"
     inkscape:export-ydpi="234.17" /><path
     style="fill:#11222B;"
     d="M197.472,175.592C198.304,175.864,199.16,176,200,176c2.472,0,4.856-1.152,6.4-3.2l76.712-102.288  c2.656-3.536,1.936-8.544-1.592-11.192C257.728,41.448,229.544,32,200,32c-4.416,0-8,3.584-8,8v128  C192,171.448,194.2,174.496,197.472,175.592z M208,48.264c20.496,1.352,40.064,7.92,57.36,19.248L208,144V48.264z"
     id="path6"
     inkscape:export-xdpi="234.17"
     inkscape:export-ydpi="234.17" /><path
     style="fill:#E07A5F;"
     d="M333.632,138.568c-7.168-17.52-18.368-33.016-32.84-45.44L244.4,168.312L333.632,138.568z"
     id="path8"
     inkscape:export-xdpi="234.17"
     inkscape:export-ydpi="234.17" /><path
     style="fill:#11222B;"
     d="M216.144,188.672c1.528,2.136,3.968,3.328,6.488,3.328c0.84,0,1.696-0.136,2.528-0.408  l121.368-40.456c4.192-1.4,6.456-5.928,5.056-10.12c-8.744-26.232-25.152-48.952-47.44-65.696c-1.696-1.272-3.824-1.8-5.936-1.528  c-2.104,0.304-4,1.424-5.272,3.12L216.232,179.2C214.128,182,214.096,185.84,216.144,188.672z M333.632,138.568L244.4,168.312  l56.392-75.184C315.264,105.552,326.456,121.04,333.632,138.568z"
     id="path10"
     inkscape:export-xdpi="234.17"
     inkscape:export-ydpi="234.17" /><path
     style="fill:#cccccc"
     d="M69.552,252.512L160,180.16V64.264C97.552,68.4,48,120.52,48,184  C48,208.816,55.424,232.344,69.552,252.512z"
     id="path12"
     inkscape:export-xdpi="234.17"
     inkscape:export-ydpi="234.17" /><path
     style="fill:#11222B;"
     d="M68.112,271.92c1.752,0,3.52-0.576,4.992-1.752L173,190.248c1.896-1.52,3-3.816,3-6.248V56  c0-4.416-3.584-8-8-8C93.008,48,32,109.008,32,184c0,31.168,10.328,60.528,29.864,84.92C63.44,270.888,65.768,271.92,68.112,271.92z   M160,64.264V180.16l-90.448,72.36C55.424,232.344,48,208.816,48,184C48,120.52,97.552,68.4,160,64.264z"
     id="path14"
     inkscape:export-xdpi="234.17"
     inkscape:export-ydpi="234.17" /><path
     style="fill:#cccccc"
     d="M93.048,289c22.744,24.88,54.552,39,88.448,39c29.368,0,57.128-10.48,79.008-29.672l-79.608-79.608  L93.048,289z"
     id="path16"
     inkscape:export-xdpi="234.17"
     inkscape:export-ydpi="234.17" /><path
     style="fill:#11222B;"
     d="M73.64,287.04c-0.232,2.112,0.384,4.224,1.712,5.88c26,32.464,64.688,51.08,106.144,51.08  c36.328,0,70.48-14.152,96.168-39.832c3.128-3.128,3.128-8.184,0-11.312l-90.512-90.512c-2.872-2.888-7.48-3.152-10.656-0.592  L76.6,281.672C74.936,283,73.872,284.928,73.64,287.04z M181.496,328c-33.896,0-65.696-14.12-88.448-39l87.848-70.28l79.608,79.608  C238.624,317.52,210.864,328,181.496,328z"
     id="path18"
     inkscape:export-xdpi="234.17"
     inkscape:export-ydpi="234.17" /><path
     style="fill:#cccccc"
     d="M348.064,186.2l-101.256,33.752l75.512,75.512c19.2-21.872,29.68-49.632,29.68-79.008  C352,206.296,350.68,196.152,348.064,186.2z"
     id="path20"
     inkscape:export-xdpi="234.17"
     inkscape:export-ydpi="234.17" /><g
     id="g30"
     inkscape:export-xdpi="234.17"
     inkscape:export-ydpi="234.17"><path
       style="fill:#11222B;"
       d="M229.472,208.864c-2.632,0.88-4.616,3.056-5.256,5.752s0.168,5.536,2.128,7.496l90.504,90.504   c1.56,1.56,3.608,2.344,5.656,2.344s4.096-0.784,5.656-2.344c25.688-25.68,39.84-59.832,39.84-96.16   c0-14.512-2.368-28.976-7.04-42.992c-1.392-4.192-5.912-6.472-10.12-5.056L229.472,208.864z M246.808,219.952L348.064,186.2   c2.616,9.952,3.936,20.096,3.936,30.256c0,29.376-10.48,57.136-29.672,79.008L246.808,219.952z"
       id="path22" /><rect
       x="432"
       y="328"
       style="fill:#11222B;"
       width="16"
       height="16"
       id="rect24" /><rect
       x="400"
       y="328"
       style="fill:#11222B;"
       width="16"
       height="16"
       id="rect26" /><rect
       x="368"
       y="328"
       style="fill:#11222B;"
       width="16"
       height="16"
       id="rect28" /></g><g
     id="g48"
     style="fill:#ffec00;fill-opacity:1"
     inkscape:export-xdpi="234.17"
     inkscape:export-ydpi="234.17"><rect
       x="368"
       y="40"
       style="fill:#ffec00;fill-opacity:1"
       width="16"
       height="16"
       id="rect32" /><rect
       x="368"
       y="72"
       style="fill:#ffec00;fill-opacity:1"
       width="16"
       height="16"
       id="rect34" /><rect
       x="368"
       y="104"
       style="fill:#ffec00;fill-opacity:1"
       width="16"
       height="16"
       id="rect36" /><rect
       x="368"
       y="136"
       style="fill:#ffec00;fill-opacity:1"
       width="16"
       height="16"
       id="rect38" /><rect
       x="400"
       y="40"
       style="fill:#ffec00;fill-opacity:1"
       width="48"
       height="16"
       id="rect40" /><rect
       x="400"
       y="72"
       style="fill:#ffec00;fill-opacity:1"
       width="48"
       height="16"
       id="rect42" /><rect
       x="400"
       y="104"
       style="fill:#ffec00;fill-opacity:1"
       width="48"
       height="16"
       id="rect44" /><rect
       x="400"
       y="136"
       style="fill:#ffec00;fill-opacity:1"
       width="48"
       height="16"
       id="rect46" /></g><g
     id="g50"
     inkscape:export-xdpi="234.17"
     inkscape:export-ydpi="234.17" /><g
     id="g52"
     inkscape:export-xdpi="234.17"
     inkscape:export-ydpi="234.17" /><g
     id="g54"
     inkscape:export-xdpi="234.17"
     inkscape:export-ydpi="234.17" /><g
     id="g56"
     inkscape:export-xdpi="234.17"
     inkscape:export-ydpi="234.17" /><g
     id="g58"
     inkscape:export-xdpi="234.17"
     inkscape:export-ydpi="234.17" /><g
     id="g60"
     inkscape:export-xdpi="234.17"
     inkscape:export-ydpi="234.17" /><g
     id="g62"
     inkscape:export-xdpi="234.17"
     inkscape:export-ydpi="234.17" /><g
     id="g64"
     inkscape:export-xdpi="234.17"
     inkscape:export-ydpi="234.17" /><g
     id="g66"
     inkscape:export-xdpi="234.17"
     inkscape:export-ydpi="234.17" /><g
     id="g68"
     inkscape:export-xdpi="234.17"
     inkscape:export-ydpi="234.17" /><g
     id="g70"
     inkscape:export-xdpi="234.17"
     inkscape:export-ydpi="234.17" /><g
     id="g72"
     inkscape:export-xdpi="234.17"
     inkscape:export-ydpi="234.17" /><g
     id="g74"
     inkscape:export-xdpi="234.17"
     inkscape:export-ydpi="234.17" /><g
     id="g76"
     inkscape:export-xdpi="234.17"
     inkscape:export-ydpi="234.17" /><g
     id="g78"
     inkscape:export-xdpi="234.17"
     inkscape:export-ydpi="234.17" /><path
     style="opacity:1;fill:#ffffff;fill-opacity:1;stroke:#000000;stroke-width:0;stroke-miterlimit:4;stroke-dasharray:none;stroke-opacity:1"
     d="M 59.721861,265.16061 C 25.139391,219.89034 23.502421,156.84209 55.651774,108.4003 62.8103,97.614028 81.14253,79.115914 91.527551,72.199893 112.00612,58.56196 134.62921,50.692678 158.90666,48.762545 c 10.11356,-0.80406 14.06606,0.247992 15.8788,4.226518 1.72397,3.783682 1.58632,130.130007 -0.14555,133.612227 -0.69545,1.39831 -24.1421,20.92995 -52.10366,43.40368 -58.866211,47.31288 -55.126305,45.21975 -62.814389,35.15564 z m 55.712709,-48.66295 45.24552,-36.20532 V 121.96931 63.646271 l -5.33898,0.562632 C 102.45125,69.782528 58.5537,110.9569 49.372925,163.60336 c -4.959641,28.44069 1.207602,60.03749 16.348881,83.76064 1.874181,2.93644 3.64602,5.33899 3.937422,5.33899 0.291402,0 20.890307,-16.29239 45.775342,-36.20533 z"
     id="path4827"
     inkscape:connector-curvature="0"
     inkscape:export-xdpi="234.17"
     inkscape:export-ydpi="234.17" /><path
     style="opacity:1;fill:#ffffff;fill-opacity:1;stroke:#000000;stroke-width:0;stroke-miterlimit:4;stroke-dasharray:none;stroke-opacity:1"
     d="M 161.35074,342.15689 C 146.96431,339.90626 128.3449,333.5044 116.34076,326.6812 103.84645,319.57938 96.87597,314.19207 85.680094,302.98433 73.407785,290.69901 72.087092,288.01702 76.019077,283.36523 c 0.978813,-1.15799 24.432203,-20.19992 52.118643,-42.31538 41.19197,-32.90346 50.89601,-40.21006 53.40444,-40.21061 2.68854,-5.8e-4 8.90938,5.84815 50.59323,47.56695 36.99974,37.03077 47.52775,48.12346 47.52775,50.07694 0,1.78627 -2.13534,4.56283 -7.41053,9.63579 -16.15353,15.53424 -38.72038,27.24033 -62.75896,32.5549 -8.94342,1.97725 -39.05461,2.90485 -48.14291,1.48307 z m 48.4551,-17.13919 c 9.97224,-2.37676 21.19903,-6.78652 30.64678,-12.03771 7.78714,-4.3282 19.88849,-13.14548 19.88849,-14.49113 0,-1.14169 -75.89138,-78.05359 -78.2775,-79.33012 -1.14797,-0.61413 -12.82532,8.18144 -44.77335,33.72401 -23.77118,19.00516 -43.5901,34.91185 -44.042032,35.34821 -0.451933,0.43636 1.836203,3.41405 5.084746,6.61709 28.262066,27.86619 71.752126,39.63659 111.472866,30.16965 z"
     id="path4831"
     inkscape:connector-curvature="0"
     inkscape:export-xdpi="234.17"
     inkscape:export-ydpi="234.17" /><path
     style="opacity:1;fill:#ffffff;fill-opacity:1;stroke:#000000;stroke-width:0;stroke-miterlimit:4;stroke-dasharray:none;stroke-opacity:1"
     d="m 272.30237,267.18241 c -42.03267,-42.03268 -47.55448,-47.91627 -47.55448,-50.67019 0,-1.93633 0.86612,-3.90371 2.28814,-5.19746 3.30525,-3.00711 125.14106,-43.41634 128.42064,-42.59321 3.61166,0.90646 5.15195,3.9005 8.15659,15.85492 3.6764,14.62705 4.57386,38.68505 2.01419,53.99303 -4.36224,26.08808 -16.58486,51.10457 -33.59922,68.76876 -5.0886,5.28294 -7.84777,7.39863 -9.64892,7.39863 -1.97139,0 -12.9115,-10.38905 -50.07694,-47.55448 z m 57.43608,19.5197 c 10.48981,-14.49471 18.22749,-33.15085 21.20898,-51.13647 2.50067,-15.0852 -0.0415,-50.96408 -3.5203,-49.6844 -0.6346,0.23344 -23.69288,7.9242 -51.24063,17.09058 l -50.08682,16.66614 37.87961,37.88972 c 20.83379,20.83934 38.33896,37.74383 38.90038,37.56553 0.56142,-0.17829 3.64787,-3.95429 6.85878,-8.3911 z"
     id="path4833"
     inkscape:connector-curvature="0"
     inkscape:export-xdpi="234.17"
     inkscape:export-ydpi="234.17" /><path
     style="opacity:1;fill:#ffffff;fill-opacity:1;stroke:#000000;stroke-width:0;stroke-miterlimit:4;stroke-dasharray:none;stroke-opacity:1"
     d="m 218.27487,189.57833 c -5.84617,-4.59859 -6.10049,-4.17351 36.51133,-61.02692 26.97418,-35.989396 40.06783,-52.660926 42.00416,-53.481907 4.04674,-1.715775 7.55288,0.291558 18.48617,10.583697 15.10052,14.21499 28.02365,33.5855 34.54834,51.78458 4.09173,11.41295 8.93195,8.87405 -63.04308,33.06866 -34.39831,11.56308 -63.28151,21.05885 -64.18489,21.10169 -0.90338,0.0428 -2.8483,-0.87056 -4.32203,-2.0298 z m 70.54068,-35.6465 c 23.77126,-7.90041 43.67443,-14.78402 44.22926,-15.29692 1.43622,-1.32767 -6.60428,-16.61179 -13.74437,-26.12657 -3.20753,-4.2743 -8.63199,-10.50189 -12.05436,-13.839085 -5.40003,-5.265632 -6.4073,-5.870507 -7.62066,-4.576271 -0.769,0.820247 -13.19194,17.279496 -27.60654,36.576106 -14.41459,19.29661 -26.65602,35.65678 -27.20318,36.35593 -0.54715,0.69915 -0.59562,1.27119 -0.10772,1.27119 0.4879,0 20.33631,-6.46397 44.10757,-14.36438 z"
     id="path4835"
     inkscape:connector-curvature="0"
     inkscape:export-xdpi="234.17"
     inkscape:export-ydpi="234.17" /><path
     style="opacity:1;fill:#ffffff;fill-opacity:1;stroke:#000000;stroke-width:0;stroke-miterlimit:4;stroke-dasharray:none;stroke-opacity:1"
     d="m 194.70167,172.9187 -2.49615,-2.49614 V 104.33134 38.240133 l 2.4561,-2.853319 c 2.40724,-2.796571 2.6449,-2.847297 11.94915,-2.550535 23.42005,0.746988 49.27366,9.436687 69.65143,23.410649 6.33108,4.341509 6.9892,5.123967 7.28038,8.655827 0.30468,3.695746 -1.55332,6.381381 -38.55628,55.730965 -21.38201,28.51647 -39.81856,52.50805 -40.97011,53.31462 -3.09133,2.16526 -6.49599,1.7889 -9.31452,-1.02964 z m 42.05561,-66.26622 c 15.27466,-20.431386 28.00705,-37.760213 28.2942,-38.508508 0.33483,-0.87256 -1.83704,-2.679834 -6.05545,-5.038904 C 245.50055,55.557969 227.80578,49.76099 214.83264,48.63671 l -7.37289,-0.638949 v 47.945833 c 0,26.370206 0.34323,47.925806 0.76272,47.901346 0.41949,-0.0245 13.26016,-16.76108 28.53481,-37.19246 z"
     id="path4837"
     inkscape:connector-curvature="0"
     inkscape:export-xdpi="234.17"
     inkscape:export-ydpi="234.17" /><path
     style="opacity:1;fill:#ffff00;fill-opacity:1;stroke:#000000;stroke-width:0;stroke-miterlimit:4;stroke-dasharray:none;stroke-opacity:1"
     d="m 208.4767,95.374465 c 0,-44.109204 0.10547,-46.867299 1.77966,-46.541137 0.97882,0.19069 5.44068,0.883767 9.91526,1.540171 13.44594,1.972471 34.86269,10.060978 41.99032,15.85857 l 2.3293,1.894646 -27.03496,36.095485 c -14.86923,19.85252 -27.4725,36.53303 -28.00727,37.0678 -0.61844,0.61845 -0.97231,-16.09208 -0.97231,-45.915535 z"
     id="path4849"
     inkscape:connector-curvature="0"
     inkscape:export-xdpi="234.17"
     inkscape:export-ydpi="234.17" /><path
     style="opacity:1;fill:#ffec00;fill-opacity:1;stroke:#000000;stroke-width:0;stroke-miterlimit:4;stroke-dasharray:none;stroke-opacity:1"
     d="m 246.10382,167.05052 c 0,-0.80243 53.98434,-72.475287 54.80995,-72.768998 1.37375,-0.488706 14.90294,14.446728 20.20257,22.302448 5.02671,7.45118 11.42816,19.26472 11.42816,21.09007 0,0.52869 -18.87712,7.24473 -41.94915,14.92454 -23.07204,7.67981 -42.52119,14.17366 -43.22034,14.43078 -0.69915,0.25713 -1.27119,0.26665 -1.27119,0.0212 z"
     id="path4859"
     inkscape:connector-curvature="0"
     inkscape:export-xdpi="234.17"
     inkscape:export-ydpi="234.17" /><path
     style="opacity:1;fill:#ffec00;fill-opacity:1;stroke:#000000;stroke-width:0;stroke-miterlimit:4;stroke-dasharray:none;stroke-opacity:1"
     d="m 208.95313,118.71994 c -0.71586,-19.765193 -0.077,-68.111242 0.91305,-69.101348 0.92382,-0.923821 19.71383,2.931642 28.28857,5.804442 9.68734,3.24556 19.22095,7.74905 23.16485,10.942623 l 2.49774,2.022545 -26.77349,35.716718 c -14.72541,19.64419 -26.8979,35.71671 -27.04997,35.71671 -0.15206,0 -0.6204,-9.49576 -1.04075,-21.10169 z"
     id="path4861"
     inkscape:connector-curvature="0"
     inkscape:export-xdpi="234.17"
     inkscape:export-ydpi="234.17" /><path
     style="opacity:1;fill:#ffec00;fill-opacity:1;stroke:#000000;stroke-width:0;stroke-miterlimit:4;stroke-dasharray:none;stroke-opacity:1"
     d="m 367.97813,335.68743 v -7.62712 h 7.62712 7.62712 v 7.62712 7.62712 h -7.62712 -7.62712 z"
     id="path4863"
     inkscape:connector-curvature="0"
     inkscape:export-xdpi="234.17"
     inkscape:export-ydpi="234.17" /><path
     style="opacity:1;fill:#ffec00;fill-opacity:1;stroke:#000000;stroke-width:0;stroke-miterlimit:4;stroke-dasharray:none;stroke-opacity:1"
     d="m 400.52051,335.68743 v -7.62712 h 7.62711 7.62712 v 7.62712 7.62712 h -7.62712 -7.62711 z"
     id="path4865"
     inkscape:connector-curvature="0"
     inkscape:export-xdpi="234.17"
     inkscape:export-ydpi="234.17" /><path
     style="opacity:1;fill:#ffec00;fill-opacity:1;stroke:#000000;stroke-width:0;stroke-miterlimit:4;stroke-dasharray:none;stroke-opacity:1"
     d="m 432.04593,335.68743 v -7.62712 h 7.62712 7.62712 v 7.62712 7.62712 h -7.62712 -7.62712 z"
     id="path4867"
     inkscape:connector-curvature="0"
     inkscape:export-xdpi="234.17"
     inkscape:export-ydpi="234.17" /><path
     style="opacity:1;fill:#cccccc;fill-opacity:1;stroke:#000000;stroke-width:0;stroke-miterlimit:4;stroke-dasharray:none;stroke-opacity:1"
     d="m 367.97813,335.68743 v -7.62712 h 7.62712 7.62712 v 7.62712 7.62712 h -7.62712 -7.62712 z"
     id="path4869"
     inkscape:connector-curvature="0"
     inkscape:export-xdpi="234.17"
     inkscape:export-ydpi="234.17" /><path
     style="opacity:1;fill:#cccccc;fill-opacity:1;stroke:#000000;stroke-width:0;stroke-miterlimit:4;stroke-dasharray:none;stroke-opacity:1"
     d="m 404.36095,343.58557 c 2.3919,-0.21482 6.05292,-0.2118 8.13559,0.007 2.08267,0.21853 0.12566,0.39429 -4.34892,0.3906 -4.47457,-0.004 -6.17858,-0.18248 -3.78667,-0.39731 z"
     id="path4871"
     inkscape:connector-curvature="0"
     inkscape:export-xdpi="234.17"
     inkscape:export-ydpi="234.17" /><path
     style="opacity:1;fill:#cccccc;fill-opacity:1;stroke:#000000;stroke-width:0;stroke-miterlimit:4;stroke-dasharray:none;stroke-opacity:1"
     d="m 400.52051,335.68743 v -7.62712 h 7.62711 7.62712 v 7.62712 7.62712 h -7.62712 -7.62711 z"
     id="path4873"
     inkscape:connector-curvature="0"
     inkscape:export-xdpi="234.17"
     inkscape:export-ydpi="234.17" /><path
     style="opacity:1;fill:#ffffff;fill-opacity:1;stroke:#000000;stroke-width:0;stroke-miterlimit:4;stroke-dasharray:none;stroke-opacity:1"
     d="m 432.04593,335.68743 v -7.62712 h 7.62712 7.62712 v 7.62712 7.62712 h -7.62712 -7.62712 z"
     id="path4875"
     inkscape:connector-curvature="0"
     inkscape:export-xdpi="234.17"
     inkscape:export-ydpi="234.17" /><path
     style="opacity:1;fill:#ffffff;fill-opacity:1;stroke:#000000;stroke-width:0;stroke-miterlimit:4;stroke-dasharray:none;stroke-opacity:1"
     d="m 367.97813,335.68743 v -7.62712 h 7.62712 7.62712 v 7.62712 7.62712 h -7.62712 -7.62712 z"
     id="path4877"
     inkscape:connector-curvature="0"
     inkscape:export-xdpi="234.17"
     inkscape:export-ydpi="234.17" /><path
     style="opacity:1;fill:#ffffff;fill-opacity:1;stroke:#000000;stroke-width:0;stroke-miterlimit:4;stroke-dasharray:none;stroke-opacity:1"
     d="m 400.52051,335.68743 v -7.62712 h 8.13559 8.13559 v 7.62712 7.62712 h -8.13559 -8.13559 z"
     id="path4879"
     inkscape:connector-curvature="0"
     inkscape:export-xdpi="234.17"
     inkscape:export-ydpi="234.17" /><path
     style="opacity:1;fill:#ffec00;fill-opacity:1;stroke:#000000;stroke-width:0;stroke-miterlimit:4;stroke-dasharray:none;stroke-opacity:1"
     d="m 194.93844,172.33201 -2.29833,-2.37128 V 104.0695 38.178281 l 2.42195,-2.568022 c 2.38889,-2.532956 2.5013,-2.568021 8.23273,-2.568021 22.88087,0 50.88039,8.934353 71.75248,22.895463 9.78765,6.546855 10.17561,8.367062 3.83482,17.991933 -7.0357,10.679707 -68.27994,92.056216 -74.08373,98.436606 -2.9941,3.29157 -6.64873,3.27887 -9.85992,-0.0342 z m 29.50728,-48.864 c 18.43599,-24.286934 38.98825,-52.045334 40.19207,-54.28443 1.22876,-2.285471 -0.12408,-3.537511 -8.54695,-7.910173 -12.75754,-6.622969 -29.22682,-11.798576 -40.63283,-12.769204 -2.86009,-0.243387 -5.92824,-0.59215 -6.81811,-0.775028 l -1.61796,-0.332505 v 38.371406 c 0,38.628874 0.4921,58.014274 1.4727,58.014274 0.29186,0 7.46984,-9.14145 15.95108,-20.31434 z"
     id="path4881"
     inkscape:connector-curvature="0"
     inkscape:export-xdpi="234.17"
     inkscape:export-ydpi="234.17" /><path
     style="opacity:1;fill:#ffec00;fill-opacity:1;stroke:#000000;stroke-width:0;stroke-miterlimit:4;stroke-dasharray:none;stroke-opacity:1"
     d="m 219.60604,189.91806 c -1.1865,-0.72542 -2.59099,-1.84426 -3.12109,-2.4863 -2.44443,-2.96062 2.02113,-9.77713 36.60348,-55.87397 31.74753,-42.318143 42.55933,-55.925827 44.90234,-56.513886 3.03223,-0.761039 7.80267,2.305561 16.48626,10.597926 9.184,8.770225 15.02426,15.68186 21.48121,25.42185 4.92682,7.43186 11.61654,20.77557 14.15775,28.23985 1.73232,5.08836 1.73406,5.1232 0.33396,6.70586 -3.33358,3.76827 -12.83007,7.21449 -95.65531,34.71282 -17.42781,5.7861 -31.98941,10.51898 -32.35912,10.5175 -0.36971,-0.001 -1.64297,-0.59622 -2.82948,-1.32165 z m 67.89251,-35.28787 c 44.70967,-14.9448 46.08352,-15.44896 46.08352,-16.91112 0,-2.01522 -7.9382,-16.80349 -12.36403,-23.03328 -5.99868,-8.44371 -18.20471,-21.241983 -20.25077,-21.23334 -1.19487,0.005 -7.66019,8.18442 -28.7161,36.32916 -14.94572,19.97745 -27.35771,36.80127 -27.58219,37.38625 -0.26556,0.69204 0.0368,1.06361 0.86555,1.06361 0.70053,0 19.58434,-6.12058 41.96402,-13.60128 z"
     id="path4883"
     inkscape:connector-curvature="0"
     inkscape:export-xdpi="234.17"
     inkscape:export-ydpi="234.17" /></svg>