<?xml version="1.0" encoding="UTF-8" standalone="no"?>
<!-- Generator: Adobe Illustrator 19.0.0, SVG Export Plug-In . SVG Version: 6.00 Build 0)  -->

<svg
   xmlns:dc="http://purl.org/dc/elements/1.1/"
   xmlns:cc="http://creativecommons.org/ns#"
   xmlns:rdf="http://www.w3.org/1999/02/22-rdf-syntax-ns#"
   xmlns:svg="http://www.w3.org/2000/svg"
   xmlns="http://www.w3.org/2000/svg"
   xmlns:sodipodi="http://sodipodi.sourceforge.net/DTD/sodipodi-0.dtd"
   xmlns:inkscape="http://www.inkscape.org/namespaces/inkscape"
   version="1.1"
   id="Capa_1"
   x="0px"
   y="0px"
   viewBox="0 0 512.832 512.832"
   style="enable-background:new 0 0 512.832 512.832;"
   xml:space="preserve"
   sodipodi:docname="artificial-intelligence.svg"><metadata
     id="metadata121"><rdf:RDF><cc:Work
         rdf:about=""><dc:format>image/svg+xml</dc:format><dc:type
           rdf:resource="http://purl.org/dc/dcmitype/StillImage" /></cc:Work></rdf:RDF></metadata><defs
     id="defs119" /><sodipodi:namedview
     pagecolor="#ffffff"
     bordercolor="#666666"
     borderopacity="1"
     objecttolerance="10"
     gridtolerance="10"
     guidetolerance="10"
     inkscape:pageopacity="0"
     inkscape:pageshadow="2"
     inkscape:window-width="640"
     inkscape:window-height="480"
     id="namedview117"
     showgrid="false" /><g
     id="g6"><g
       id="g4"><path
         d="M440.331,400.555c-2.176-3.221-2.581-4.011-3.925-5.973c5.739,0.725,11.2-3.392,11.925-9.259s-3.435-11.2-9.259-11.925    c-1.579-0.149-9.515-0.853-15.936,4.821c-3.051,2.709-6.72,7.787-6.72,16.448c0,8.533,3.584,13.867,6.187,17.771    c2.603,3.883,4.48,6.677,4.48,14.229c0,8.32-3.179,14.72-44.395,21.483c-28.181,4.608-94.272,28.267-94.272,53.184    c0,5.888,4.629,11.499,10.517,11.499c5.909,0,10.517-3.947,10.517-9.835c3.776-7.616,41.643-28.075,76.693-33.813    c26.261-4.288,62.272-10.176,62.272-42.517C448.416,412.608,443.531,405.355,440.331,400.555z"
         id="path2" /></g></g><g
     id="g12"><g
       id="g10"><path
         d="M480.416,309.333c0-15.125-31.168-70.912-46.72-97.813c1.451-7.68,4.053-25.237,4.053-51.52    c0-45.547-60.288-160-202.667-160C95.285,0,32.416,106.048,32.416,181.333c0,53.248,31.467,107.819,56.725,151.616    c14.72,25.536,28.608,49.643,28.608,61.717c0,27.157-44.16,80.981-61.163,99.435c-4.011,4.331-3.733,11.072,0.597,15.061    c2.048,1.899,4.651,2.837,7.232,2.837c2.88,0,5.739-1.152,7.829-3.435c6.848-7.403,66.837-73.557,66.837-113.899    c0-17.792-13.867-41.877-31.467-72.363c-24-41.621-53.867-93.419-53.867-140.971c0-52.203,44.331-160,181.333-160    c135.979,0,181.333,109.312,181.333,138.667c0,32.64-4.309,50.581-4.331,50.795c-0.661,2.688-0.235,5.547,1.131,7.936    c21.461,36.864,45.12,82.069,45.909,90.453c-0.981,2.944-12.032,8.64-23.552,11.072c-2.987,0.619-5.547,2.496-7.061,5.12    c-1.493,2.645-1.835,5.803-0.875,8.683l8.576,25.749l-5.995,5.995c-4.16,4.16-4.16,10.923,0,15.083    c4.16,4.16,10.923,4.16,15.083,0l10.667-10.667c2.859-2.859,3.861-7.083,2.581-10.923l-7.125-21.376    C463.669,333.675,480.416,324.971,480.416,309.333z"
         id="path8" /></g></g><g
     id="g18"><g
       id="g16"><path
         d="M221.301,259.136l-60.885-60.885v-33.835l18.197-18.219c4.16-4.16,4.16-10.923,0-15.083c-4.16-4.16-10.923-4.16-15.083,0    l-21.333,21.333c-1.984,2.005-3.115,4.715-3.115,7.552v42.667c0,2.837,1.131,5.547,3.115,7.552l60.885,60.864v230.251    c0,5.888,4.779,10.667,10.667,10.667s10.667-4.779,10.667-10.667V266.667C224.416,263.829,223.285,261.12,221.301,259.136z"
         id="path14" /></g></g><g
     id="g24"><g
       id="g22"><path
         d="M363.083,192H218.165l-18.219-18.197c-4.16-4.16-10.923-4.16-15.083,0c-4.16,4.16-4.16,10.923,0,15.083l21.333,21.333    c2.005,1.984,4.715,3.115,7.552,3.115h149.333c5.888,0,10.667-4.779,10.667-10.667S368.971,192,363.083,192z"
         id="path20" /></g></g><g
     id="g30"><g
       id="g28"><path
         d="M370.635,131.115c-4.16-4.16-10.923-4.16-15.083,0l-18.219,18.219h-59.584c-5.888,0-10.667,4.779-10.667,10.667    s4.779,10.667,10.667,10.667h64c2.837,0,5.547-1.131,7.552-3.136l21.333-21.333C374.795,142.037,374.795,135.275,370.635,131.115z    "
         id="path26" /></g></g><g
     id="g36"><g
       id="g34"><path
         d="M327.968,88.448c-4.16-4.16-10.923-4.16-15.083,0l-18.219,18.219h-38.251c-2.837,0-5.547,1.131-7.552,3.136    l-21.333,21.333c-4.16,4.16-4.16,10.923,0,15.083c2.091,2.069,4.821,3.115,7.552,3.115s5.461-1.045,7.531-3.115L260.832,128    h38.251c2.837,0,5.547-1.131,7.552-3.136l21.333-21.333C332.128,99.371,332.128,92.608,327.968,88.448z"
         id="path32" /></g></g><g
     id="g42"><g
       id="g40"><path
         d="M221.301,88.448l-21.333-21.333c-2.005-1.984-4.715-3.115-7.552-3.115h-42.667c-2.837,0-5.547,1.131-7.552,3.115    l-42.667,42.667c-1.984,2.005-3.115,4.715-3.115,7.552V224c0,2.837,1.131,5.547,3.115,7.531l60.885,60.885v208.917    c0,5.888,4.779,10.667,10.667,10.667s10.667-4.779,10.667-10.667V288c0-2.837-1.131-5.547-3.115-7.531l-60.885-60.885v-97.835    l36.416-36.416H188l18.219,18.197c4.16,4.16,10.923,4.16,15.083,0C225.461,99.371,225.461,92.608,221.301,88.448z"
         id="path38" /></g></g><g
     id="g48"
     style="fill:#1abb9c;fill-opacity:1"><g
       id="g46"
       style="fill:#1abb9c;fill-opacity:1"><path
         d="M171.083,117.333c-11.776,0-21.333,9.557-21.333,21.333S159.307,160,171.083,160s21.333-9.557,21.333-21.333    S182.859,117.333,171.083,117.333z"
         id="path44"
         style="fill:#1abb9c;fill-opacity:1" /></g></g><g
     id="g54"><g
       id="g52"><path
         d="M349.301,237.781c-4.16-4.16-10.923-4.16-15.083,0L316,256h-33.835l-18.219-18.197c-4.16-4.16-10.923-4.16-15.083,0    c-4.16,4.16-4.16,10.923,0,15.083l21.333,21.333c2.005,1.984,4.715,3.115,7.552,3.115h42.667c2.837,0,5.547-1.131,7.552-3.136    l21.333-21.333C353.461,248.704,353.461,241.941,349.301,237.781z"
         id="path50" /></g></g><g
     id="g60"><g
       id="g58"><path
         d="M285.301,429.803l-18.219-18.219v-76.501l18.197-18.219c4.16-4.16,4.16-10.923,0-15.083c-4.16-4.16-10.923-4.16-15.083,0    l-21.333,21.333c-1.984,2.005-3.115,4.715-3.115,7.552V416c0,2.837,1.131,5.547,3.115,7.552l21.333,21.333    c2.091,2.069,4.821,3.115,7.552,3.115c2.731,0,5.461-1.045,7.552-3.115C289.461,440.725,289.461,433.963,285.301,429.803z"
         id="path56" /></g></g><g
     id="g66"><g
       id="g64"><path
         d="M391.947,259.115c-4.16-4.16-10.923-4.16-15.083,0l-85.333,85.333c-1.984,2.005-3.115,4.715-3.115,7.552v42.667    c0,5.888,4.779,10.667,10.667,10.667s10.667-4.779,10.667-10.667v-38.251l82.197-82.219    C396.107,270.037,396.107,263.275,391.947,259.115z"
         id="path62" /></g></g><g
     id="g72"><g
       id="g70"><path
         d="M277.749,416c-11.776,0-21.333,9.557-21.333,21.333s9.557,21.333,21.333,21.333s21.333-9.557,21.333-21.333    S289.525,416,277.749,416z"
         id="path68" /></g></g><g
     id="g78"><g
       id="g76"><path
         d="M370.613,344.448c-4.16-4.16-10.923-4.16-15.083,0l-21.333,21.333c-1.984,2.005-3.115,4.715-3.115,7.552V416    c0,5.888,4.779,10.667,10.667,10.667s10.667-4.779,10.667-10.667v-38.251l18.197-18.219    C374.773,355.371,374.773,348.608,370.613,344.448z"
         id="path74" /></g></g><g
     id="g84"><g
       id="g82"><path
         d="M320.416,74.667c-11.776,0-21.333,9.557-21.333,21.333s9.557,21.333,21.333,21.333s21.333-9.557,21.333-21.333    S332.192,74.667,320.416,74.667z"
         id="path80" /></g></g><g
     id="g86" /><g
     id="g88" /><g
     id="g90" /><g
     id="g92" /><g
     id="g94" /><g
     id="g96" /><g
     id="g98" /><g
     id="g100" /><g
     id="g102" /><g
     id="g104" /><g
     id="g106" /><g
     id="g108" /><g
     id="g110" /><g
     id="g112" /><g
     id="g114" /><path
     style="opacity:0.78699999;fill:#1abb9c;fill-opacity:1;stroke:#000000;stroke-width:0;stroke-miterlimit:4;stroke-dasharray:none;stroke-dashoffset:0;stroke-opacity:1"
     d="m 164.49241,508.30909 -3.5483,-3.17015 -0.29261,-106.83578 -0.29262,-106.83577 -31.48775,-31.55431 -31.487759,-31.55431 v -58.0338 -58.0338 L 121.06681,88.60773 144.75026,64.924288 h 25.97638 25.97638 l 13.35766,13.357663 c 12.75985,12.759847 13.35767,13.557855 13.35767,17.830805 0,3.661117 -0.60685,4.983774 -3.3429,7.285994 -6.10737,5.13902 -8.62496,4.17604 -21.05138,-8.052226 L 187.98291,84.48144 h -16.79057 -16.79056 l -18.73063,18.75359 -18.73063,18.7536 v 48.85785 48.85786 l 32.052,32.11752 32.052,32.11752 v 110.59399 110.59398 l -3.17595,3.17594 c -4.21501,4.21503 -8.66271,4.21695 -13.37616,0.005 z"
     id="path4860"
     inkscape:connector-curvature="0" /><path
     style="opacity:0.78699999;fill:#1abb9c;fill-opacity:1;stroke:#000000;stroke-width:0;stroke-miterlimit:4;stroke-dasharray:none;stroke-dashoffset:0;stroke-opacity:1"
     d="m 295.1279,511.16565 c -1.49395,-0.75244 -3.66676,-3.13157 -4.82846,-5.28695 -1.84799,-3.4287 -1.94834,-4.46576 -0.80227,-8.29101 5.46538,-18.24182 47.46031,-39.69255 97.21968,-49.65916 35.81411,-7.17343 42.21364,-11.03745 40.61636,-24.52397 -0.4118,-3.47702 -2.02879,-7.67235 -4.50067,-11.6771 -4.1649,-6.74769 -6.0157,-11.95164 -6.0157,-16.91464 0,-5.78983 2.61255,-11.97053 6.76205,-15.99748 2.25667,-2.19003 4.10304,-4.90815 4.10304,-6.04027 0,-2.27947 2.21014,-5.92849 6.25045,-10.31969 l 2.65767,-2.88847 -4.6248,-14.01306 c -4.9026,-14.85478 -5.05365,-18.01071 -1.05347,-22.01089 1.14844,-1.14844 4.1918,-2.62629 6.76304,-3.28412 12.22711,-3.12821 21.51585,-8.25964 21.51585,-11.88609 0,-5.1642 -15.82127,-37.28936 -36.38398,-73.87782 l -10.64347,-18.93856 2.05519,-14.7432 c 1.36993,-9.82744 2.04772,-20.90177 2.0328,-33.21384 -0.021,-17.34019 -0.21044,-19.03586 -3.09511,-27.70596 C 399.0306,97.438052 365.42589,59.799994 323.92038,39.947294 287.67389,22.610063 238.90102,16.615283 195.71238,24.188969 167.6178,29.11572 140.59459,40.359423 120.16283,55.62333 77.040856,87.838339 49.13545,145.52282 53.919796,192.55719 c 2.748253,27.01776 14.18924,59.22725 33.973487,95.64458 4.220369,7.76853 13.396267,24.14765 20.390877,36.39803 14.76201,25.85422 22.36203,40.72742 26.64921,52.1524 2.58496,6.88871 3.05148,9.74495 3.01686,18.47065 -0.035,8.82979 -0.54864,11.73533 -3.55316,20.1004 -6.7675,18.84178 -22.14118,43.84994 -42.755,69.54901 -16.328102,20.35611 -22.467695,26.60699 -26.133298,26.60699 -4.800466,0 -9.105606,-2.83959 -10.441342,-6.88691 -1.586389,-4.8068 -0.518052,-7.36787 6.317466,-15.1445 32.330445,-36.78166 54.923094,-73.50047 56.381754,-91.63467 0.93695,-11.64832 -3.8744,-22.68783 -29.067395,-66.69432 C 57.142136,275.99566 43.548941,245.33164 36.2057,212.70201 34.257952,204.0472 33.882272,198.9242 33.894183,181.18069 33.906936,162.18294 34.200288,158.75886 36.733277,148.04218 52.025219,83.344359 98.831561,32.481876 162.13933,11.768708 185.17033,4.2333757 207.91471,0.84368325 235.54189,0.82920672 309.93037,0.79022763 373.5243,33.539402 411.69575,91.543745 c 12.41789,18.869905 21.89902,41.371365 24.72159,58.671455 1.44636,8.86511 0.60957,33.31049 -1.72051,50.26191 l -1.53233,11.14761 9.93481,17.64486 c 20.66888,36.70933 34.9542,67.14469 36.37261,77.49308 1.43036,10.43568 -6.53771,20.89607 -21.03324,27.61215 l -7.6946,3.56506 3.68005,10.92758 c 5.06238,15.03233 4.92823,16.91647 -1.70365,23.9287 -4.86794,5.14714 -5.36577,6.14131 -5.19683,10.37801 0.16059,4.02724 -0.30664,5.1265 -3.32552,7.82387 -1.93181,1.72606 -4.48252,3.13831 -5.66826,3.13831 -1.18573,0 -2.15587,0.27124 -2.15587,0.60276 0,0.33153 1.96611,3.86263 4.36914,7.8469 5.4593,9.05166 6.80323,13.80942 6.85516,24.26873 0.0717,14.4482 -6.74585,24.30999 -21.76787,31.48768 -8.01825,3.83121 -17.24927,6.28249 -37.94554,10.07633 -17.08554,3.13197 -33.21969,8.07064 -47.12363,14.42458 -21.19437,9.68556 -30.77944,16.32296 -32.07228,22.20916 -0.46074,2.09777 -1.99559,4.09678 -4.15781,5.41522 -4.00115,2.43973 -5.69533,2.56548 -9.40327,0.69795 z"
     id="path4862"
     inkscape:connector-curvature="0" /><path
     style="opacity:0.78699999;fill:#1abb9c;fill-opacity:1;stroke:#000000;stroke-width:0;stroke-miterlimit:4;stroke-dasharray:none;stroke-dashoffset:0;stroke-opacity:1"
     d="m 60.453734,509.57617 c -4.198901,-2.10403 -6.132302,-6.07244 -5.053193,-10.37195 0.386738,-1.54088 5.190684,-8.08786 10.675436,-14.54882 30.682047,-36.14302 50.410043,-69.45377 51.678683,-87.25954 0.85263,-11.96689 -3.14732,-21.22926 -28.824649,-66.747 C 55.693873,271.73174 41.134718,238.18206 35.982829,208.63894 33.520729,194.52021 33.806261,165.25426 36.536836,151.85509 48.750141,91.923379 92.218127,39.886985 148.99252,17.232142 177.1956,5.9781912 200.49092,1.7239727 234.28343,1.6562195 c 28.39283,-0.056926 48.18347,2.8643907 72.73103,10.7359095 15.59767,5.001615 41.04326,17.739079 53.8472,26.954642 33.24166,23.925507 58.84902,58.272084 71.31808,95.657309 3.60925,10.82142 3.62387,10.95022 3.63741,32.052 0.008,11.6528 -0.63676,26.56513 -1.43163,33.13851 l -1.44522,11.95159 8.90016,15.75437 c 12.1889,21.57585 28.3955,53.93367 33.05225,65.9915 6.05919,15.68927 5.05677,23.05929 -4.31086,31.69407 -2.58487,2.38266 -8.20292,6.09626 -12.48454,8.25246 -4.83845,2.4366 -7.58505,4.44077 -7.25707,5.29544 2.82095,7.3513 6.17742,20.07905 6.17742,23.42484 0,3.33226 -0.97768,5.3527 -4.88929,10.10411 -3.97255,4.82541 -4.88929,6.74604 -4.88929,10.24337 0,3.29776 -0.71266,4.98716 -3.04735,7.22394 -1.67604,1.60575 -3.50952,2.92703 -4.07441,2.93618 -0.56487,0.009 -1.67132,0.42516 -2.45876,0.92448 -1.11034,0.70406 -0.30155,3.07811 3.60332,10.57681 4.28968,8.23766 5.12554,10.88329 5.64648,17.87179 1.41755,19.01698 -7.2762,30.65745 -28.57422,38.25934 -4.1212,1.471 -15.31595,4.25411 -24.87723,6.1847 -9.56127,1.93061 -21.75023,4.74734 -27.08659,6.25941 -27.09489,7.6774 -55.74081,23.23626 -57.78634,31.38627 -0.36419,1.45108 -1.89549,3.60844 -3.40288,4.79416 -3.9911,3.1394 -8.52608,2.76359 -12.30979,-1.02013 -13.11091,-13.11089 15.37762,-36.83732 61.91897,-51.5687 6.81961,-2.15856 21.243,-5.89096 32.052,-8.29421 25.26644,-5.61772 32.36656,-7.99842 37.06247,-12.42724 3.39782,-3.20456 3.77845,-4.14962 3.78986,-9.40985 0.0109,-4.80489 -0.889,-7.64589 -5.0445,-15.93384 -4.08696,-8.15127 -5.05718,-11.17579 -5.05718,-15.76503 0,-6.3156 2.74644,-12.76424 7.21063,-16.93053 1.5211,-1.41959 3.04766,-3.86424 3.39233,-5.43254 0.34468,-1.5683 2.32576,-4.99821 4.4024,-7.62202 2.07663,-2.62381 3.76671,-5.31291 3.75571,-5.97579 -0.011,-0.66288 -1.72224,-6.53801 -3.80278,-13.05586 -6.24346,-19.55937 -5.50057,-21.62351 9.59196,-26.65159 5.6127,-1.86987 11.77668,-4.75543 13.84268,-6.48021 l 3.72448,-3.10933 -1.38307,-5.28985 c -1.72435,-6.59511 -18.93493,-40.99105 -34.18613,-68.32212 l -11.52777,-20.65845 1.70999,-11.39355 c 1.09716,-7.31029 1.75039,-19.57067 1.8227,-34.21023 l 0.1127,-22.81668 -3.62054,-9.77857 C 404.24789,114.51597 391.97104,95.011905 374.53447,76.642153 344.16786,44.650387 304.38337,26.389736 254.46676,21.532377 196.95029,15.93548 139.89691,33.787689 104.89844,68.33285 67.653981,105.09491 48.053701,155.47897 54.361005,198.24329 c 4.723885,32.02854 16.888393,61.6111 47.937465,116.57793 19.57906,34.66124 30.3425,55.82479 33.23533,65.34879 5.63125,18.53968 0.24656,37.93394 -19.32059,69.58783 -12.14654,19.64952 -40.65823,55.47943 -47.436897,59.61272 -4.170836,2.54318 -3.681728,2.5311 -8.322579,0.20561 z"
     id="path4864"
     inkscape:connector-curvature="0" /><path
     style="opacity:0.78699999;fill:#1abb9c;fill-opacity:1;stroke:#000000;stroke-width:0;stroke-miterlimit:4;stroke-dasharray:none;stroke-dashoffset:0;stroke-opacity:1"
     d="m 169.0208,510.57755 c -0.93604,-0.40044 -2.93361,-1.71306 -4.43904,-2.91695 l -2.73715,-2.18889 -0.67776,-107.49753 -0.67776,-107.49754 -31.55286,-31.56647 -31.552859,-31.56646 V 170.29976 113.2558 L 121.56704,89.090046 145.75072,64.924288 h 25.03649 25.0365 l 13.11739,13.309728 c 7.21457,7.320351 13.45381,14.40195 13.86499,15.736886 0.95227,3.091676 -1.24283,7.605188 -5.0796,10.444548 -2.70946,2.00512 -3.25944,2.06244 -6.14937,0.64097 -1.74557,-0.85859 -7.63888,-5.83921 -13.09623,-11.068032 l -9.92246,-9.506948 h -17.62192 -17.62193 l -18.18703,18.21066 -18.18703,18.21067 v 49.81422 49.81422 l 32.03847,32.20552 32.03846,32.20551 0.0135,109.8057 0.0135,109.80571 -2.9879,2.79747 c -3.38326,3.16766 -6.53912,4.29452 -9.03582,3.22643 z"
     id="path4866"
     inkscape:connector-curvature="0" /><path
     style="opacity:0.78699999;fill:#1abb9c;fill-opacity:1;stroke:#000000;stroke-width:0;stroke-miterlimit:4;stroke-dasharray:none;stroke-dashoffset:0;stroke-opacity:1"
     d="m 164.9852,507.71026 -3.18794,-2.68247 -0.53799,-107.15943 -0.53798,-107.15942 -31.66896,-31.68262 -31.668959,-31.68261 V 170.29976 113.2558 L 121.56704,89.090046 145.75072,64.924288 h 25.12582 25.12582 l 12.71017,13.183188 c 6.99059,7.250753 13.09203,14.215455 13.55875,15.477115 2.08458,5.635174 -4.81641,13.610649 -10.05394,11.619339 -1.48151,-0.56327 -7.32974,-5.456259 -12.99608,-10.873309 L 188.91884,84.48144 h -17.80213 -17.80213 l -18.18703,18.21066 -18.18703,18.21067 v 49.97464 49.97465 l 32.052,32.03818 32.052,32.03819 v 109.9193 109.91929 l -3.34289,2.81287 c -4.21531,3.54695 -8.60261,3.59193 -12.71643,0.13037 z"
     id="path4868"
     inkscape:connector-curvature="0" /><path
     style="opacity:0.78699999;fill:#1abb9c;fill-opacity:1;stroke:#000000;stroke-width:0;stroke-miterlimit:4;stroke-dasharray:none;stroke-dashoffset:0;stroke-opacity:1"
     d="M 165.00125,507.72377 161.82936,505.0548 161.20422,397.81073 160.57907,290.56666 128.98122,258.95519 97.383371,227.34371 V 170.29976 113.2558 L 121.56704,89.090046 145.75072,64.924288 h 25.15291 25.15292 l 13.13764,13.743997 c 10.64685,11.138237 13.13765,14.344686 13.13765,16.91231 0,4.294632 -1.63521,7.037575 -5.33649,8.951575 -2.9193,1.50963 -3.37432,1.41909 -7.84498,-1.56104 -2.61026,-1.74 -8.15531,-6.611998 -12.32234,-10.826663 L 189.25161,84.48144 H 171.2831 153.31458 l -18.18703,18.21066 -18.18703,18.21067 v 49.97464 49.97465 l 32.052,32.03818 32.052,32.03819 v 109.9193 109.91929 l -3.34289,2.81287 c -4.20977,3.54227 -8.60246,3.59205 -12.70038,0.14388 z"
     id="path4870"
     inkscape:connector-curvature="0" /><path
     style="opacity:0.78699999;fill:#1abb9c;fill-opacity:1;stroke:#000000;stroke-width:0;stroke-miterlimit:4;stroke-dasharray:none;stroke-dashoffset:0;stroke-opacity:1"
     d="m 164.8684,507.40484 -3.17229,-2.9879 -0.65935,-107.02108 -0.65935,-107.02108 -31.49702,-31.51553 -31.497019,-31.51554 V 170.29976 113.2558 L 121.56704,89.090046 145.75072,64.924288 h 25.14007 25.14008 l 13.15049,13.686123 c 11.1854,11.641003 13.15048,14.202593 13.15048,17.14238 0,4.040616 -2.51988,8.075379 -5.82043,9.319519 -3.47814,1.31109 -7.40107,-1.17692 -18.06585,-11.457802 l -9.47411,-9.133068 h -17.82843 -17.82844 l -18.18703,18.21066 -18.18703,18.21067 v 49.97464 49.97465 l 32.052,32.03818 32.052,32.03819 v 109.9193 109.91929 l -3.34289,2.81287 c -4.39996,3.70232 -8.78,3.64257 -12.83323,-0.17505 z"
     id="path4872"
     inkscape:connector-curvature="0" /><path
     style="opacity:0.78699999;fill:#1abb9c;fill-opacity:1;stroke:#000000;stroke-width:0;stroke-miterlimit:4;stroke-dasharray:none;stroke-dashoffset:0;stroke-opacity:1"
     d="M 164.99044,507.71467 161.80773,505.0366 161.03626,397.70569 160.26479,290.37478 128.82408,258.85925 97.383371,227.34371 V 170.29976 113.2558 L 121.56704,89.090046 145.75072,64.924288 h 25.12208 25.12209 l 13.16848,13.623324 c 11.31898,11.709949 13.16847,14.11757 13.16847,17.14238 0,3.850353 -2.22185,7.716788 -5.41713,9.426858 -3.38117,1.80955 -7.02847,-0.41071 -17.81228,-10.843075 L 188.9802,84.48144 h -17.83281 -17.83281 l -18.18703,18.21066 -18.18703,18.21067 v 49.97464 49.97465 l 32.052,32.03818 32.052,32.03819 v 109.9193 109.91929 l -3.34289,2.81287 c -4.21334,3.54528 -8.60272,3.59183 -12.71119,0.13478 z"
     id="path4874"
     inkscape:connector-curvature="0" /><path
     style="opacity:0.78699999;fill:#1abb9c;fill-opacity:1;stroke:#000000;stroke-width:0;stroke-miterlimit:4;stroke-dasharray:none;stroke-dashoffset:0;stroke-opacity:1"
     d="m 60.345478,509.00099 c -4.672356,-3.14871 -6.273242,-7.32156 -4.255361,-11.09201 0.813629,-1.52028 6.505818,-8.8829 12.649312,-16.36138 31.888771,-38.81822 49.287601,-69.37312 49.287601,-86.55623 0,-10.43426 -4.74628,-20.94203 -29.423733,-65.14104 C 57.489548,274.12346 45.03432,246.2733 37.421063,215.4057 35.328227,206.9204 35.002631,202.60949 34.959195,182.81045 34.903042,157.21524 35.680404,151.61193 41.969844,132.2769 65.093381,61.190444 128.62168,11.185563 206.18918,3.015338 c 13.44759,-1.4164419 44.00523,-1.3960476 57.20117,0.038177 14.02942,1.5248108 32.7774,5.7602889 46.27849,10.455073 16.05186,5.581771 40.80916,18.511083 53.94953,28.174732 30.95832,22.76725 56.13005,56.936698 67.93703,92.22134 l 3.73209,11.15321 v 22.91176 c 0,12.60146 -0.54448,27.70003 -1.20996,33.55239 l -1.20997,10.64063 7.32171,13.02986 c 11.85781,21.10238 29.34235,55.71059 33.61069,66.52766 5.30731,13.45007 5.94514,19.26838 2.81997,25.7241 -2.95546,6.10517 -8.72768,11.17202 -18.69289,16.40858 -5.41721,2.84667 -7.40722,4.44619 -6.96508,5.59838 1.86233,4.85316 6.0557,20.73085 6.0557,22.92919 0,3.10203 -1.2462,5.53321 -6.08687,11.87485 -2.42174,3.17265 -3.69171,6.03277 -3.69171,8.3142 0,4.39328 -2.36387,7.79593 -7.10612,10.22885 l -3.71103,1.90387 5.12489,10.85379 c 4.84918,10.26988 5.12554,11.35062 5.13695,20.0891 0.0109,7.94406 -0.41605,10.10713 -3.04982,15.47063 -3.63396,7.40031 -9.581,12.61632 -19.31174,16.93792 -7.85475,3.48843 -13.51426,5.02659 -38.9393,10.58306 -23.05538,5.03859 -34.31928,8.81192 -51.68396,17.31377 -15.33422,7.50772 -22.30079,12.67419 -25.47195,18.89018 -3.55486,6.9681 -10.21048,8.44071 -15.27211,3.37908 -11.5663,-11.56629 10.21944,-32.09016 50.29819,-47.38477 10.9286,-4.17052 26.52967,-8.49199 48.57407,-13.45493 20.28361,-4.56654 27.62578,-7.16827 32.0776,-11.36688 3.39191,-3.19898 3.77718,-4.15175 3.77718,-9.34103 0,-4.59639 -1.02606,-7.97369 -5.01509,-16.50725 -4.55076,-9.73527 -4.97252,-11.3169 -4.55543,-17.08307 0.34613,-4.78523 1.24923,-7.48533 3.65695,-10.93361 1.75851,-2.5185 4.11527,-6.10746 5.23722,-7.97544 1.12196,-1.86799 3.75758,-5.97656 5.85693,-9.13019 l 3.817,-5.73385 -3.96331,-13.28004 c -2.17982,-7.30402 -3.95981,-14.53938 -3.95553,-16.07856 0.0109,-3.89384 3.91589,-7.16402 12.0995,-10.13234 8.90333,-3.22936 15.35406,-6.52208 17.24791,-8.80402 1.22736,-1.47889 1.25143,-2.68338 0.13724,-6.87009 -1.68875,-6.34579 -20.15574,-43.23738 -34.73057,-69.38143 l -11.01461,-19.75779 1.03466,-5.45578 c 1.81468,-9.56876 3.54832,-39.364 3.0098,-51.72789 -0.43584,-10.00621 -1.08688,-13.45484 -3.99972,-21.18692 C 393.81897,86.926365 352.85072,47.589978 302.79808,31.258524 282.93449,24.77732 254.74418,20.38045 233.04041,20.378352 195.22204,20.374695 155.00552,31.815683 126.7191,50.625149 79.425361,82.073803 47.410001,145.38187 53.827998,194.76204 c 4.31827,33.22484 15.792416,61.61361 48.964542,121.14569 19.85527,35.6331 31.63527,59.28771 33.45823,67.18518 4.1419,17.94368 -3.05803,40.36254 -22.50256,70.06765 -18.31965,27.98664 -43.908615,58.31869 -49.199287,58.31869 -0.289277,0 -2.180828,-1.11522 -4.203445,-2.47826 z"
     id="path4876"
     inkscape:connector-curvature="0" /><path
     style="opacity:0.78699999;fill:#1abb9c;fill-opacity:1;stroke:#000000;stroke-width:0;stroke-miterlimit:4;stroke-dasharray:none;stroke-dashoffset:0;stroke-opacity:1"
     d="m 60.345478,509.00099 c -4.58194,-3.08777 -6.271124,-7.32553 -4.350475,-10.91429 0.761314,-1.42253 7.476045,-10.11428 14.921623,-19.315 25.850359,-31.94406 43.622534,-61.69664 46.344124,-77.58515 2.30999,-13.48561 -0.87878,-21.45648 -28.248132,-70.61095 C 56.677628,272.50298 44.041259,244.03864 36.91977,213.23269 34.146003,201.23399 34.152826,161.87624 36.930783,149.70292 41.60319,129.22792 51.348628,106.34678 63.089975,88.284219 93.997866,40.736381 145.53508,9.8854665 205.49096,3.0409452 c 12.72574,-1.4527614 44.48067,-1.4458679 57.89939,0.012569 40.74346,4.4282716 82.653,22.5272068 112.94307,48.7752718 23.7783,20.605248 45.412,52.759204 55.22198,82.075874 l 3.73209,11.15321 v 22.91176 c 0,12.60146 -0.53958,27.69632 -1.19907,33.54415 l -1.19907,10.6324 9.41982,16.84088 c 12.99606,23.23452 30.34881,58.60596 33.67463,68.6416 1.52021,4.58721 2.76402,9.9333 2.76402,11.88018 0,8.67679 -7.66851,17.46242 -21.83051,25.01068 -4.40637,2.34858 -6.32447,3.96981 -5.92582,5.00868 1.83811,4.79002 6.02617,20.67185 6.02617,22.85222 0,3.10203 -1.2462,5.53321 -6.08687,11.87485 -2.42174,3.17265 -3.69171,6.03277 -3.69171,8.3142 0,4.39494 -2.36414,7.79606 -7.11236,10.23205 l -3.71726,1.90707 4.77542,10.12657 c 12.72227,26.97837 4.25149,46.62626 -24.15912,56.03687 -4.59675,1.5226 -16.66952,4.5214 -26.82837,6.66399 -22.76428,4.80117 -40.84907,10.70005 -56.49844,18.42856 -14.43882,7.13068 -21.99321,12.70265 -25.27259,18.6405 -4.41653,7.9969 -13.3498,8.69611 -17.15248,1.34255 -2.38912,-4.62007 -1.9288,-7.8263 1.95263,-13.60066 4.90974,-7.30414 14.50966,-14.67204 28.32794,-21.74157 16.82589,-8.60826 31.28184,-13.73675 54.67199,-19.39583 40.14934,-9.71383 46.2823,-11.85523 49.93965,-17.43706 2.85853,-4.36268 1.56847,-12.51855 -3.83575,-24.24983 -4.19773,-9.11228 -4.62715,-10.7972 -4.21258,-16.52878 0.38637,-5.34135 1.26168,-7.58482 5.36728,-13.75658 2.6981,-4.05593 6.76385,-10.18928 9.035,-13.62966 l 4.12937,-6.25527 -3.95841,-13.30188 c -2.17712,-7.31605 -3.95033,-14.4396 -3.94048,-15.83012 0.0264,-3.73013 5.21439,-8.2699 11.98524,-10.48781 7.55516,-2.47481 15.46058,-6.41536 17.28818,-8.61747 0.9047,-1.0901 1.16428,-3.0286 0.72156,-5.38851 -0.91736,-4.88998 -20.25854,-43.85294 -34.62404,-69.75041 l -11.49177,-20.71684 1.62916,-11.33516 c 0.97091,-6.75531 1.70705,-20.77349 1.82195,-34.69509 l 0.19279,-23.35993 -3.94611,-9.82703 C 395.20413,93.399686 365.29198,60.372652 325.93309,40.651112 302.17507,28.746695 264.08618,20.377444 233.6666,20.377444 c -33.8433,0 -72.02506,9.739831 -98.57011,25.144374 C 94.09006,69.318544 61.471417,117.27202 54.549476,163.936 c -2.130885,14.36526 -2.143518,21.36357 -0.06349,35.17208 4.686908,31.11462 15.795248,58.0583 47.566384,115.37403 29.18526,52.65073 35.53181,66.83292 35.53181,79.40036 0,19.55807 -14.25555,48.49235 -41.285601,83.79677 -15.670808,20.46792 -28.103487,33.75435 -31.621408,33.79285 -0.359813,0.004 -2.309073,-1.10806 -4.33169,-2.4711 z"
     id="path4878"
     inkscape:connector-curvature="0" /></svg>