<?xml version="1.0" encoding="UTF-8" standalone="no"?>
<!-- Generator: Adobe Illustrator 19.0.0, SVG Export Plug-In . SVG Version: 6.00 Build 0)  -->

<svg
   xmlns:dc="http://purl.org/dc/elements/1.1/"
   xmlns:cc="http://creativecommons.org/ns#"
   xmlns:rdf="http://www.w3.org/1999/02/22-rdf-syntax-ns#"
   xmlns:svg="http://www.w3.org/2000/svg"
   xmlns="http://www.w3.org/2000/svg"
   xmlns:sodipodi="http://sodipodi.sourceforge.net/DTD/sodipodi-0.dtd"
   xmlns:inkscape="http://www.inkscape.org/namespaces/inkscape"
   version="1.1"
   id="Capa_1"
   x="0px"
   y="0px"
   viewBox="0 0 512.832 512.832"
   style="enable-background:new 0 0 512.832 512.832;"
   xml:space="preserve"
   sodipodi:docname="artificial-intelligence.svg"
   inkscape:version="0.92.2 (5c3e80d, 2017-08-06)"><metadata
     id="metadata121"><rdf:RDF><cc:Work
         rdf:about=""><dc:format>image/svg+xml</dc:format><dc:type
           rdf:resource="http://purl.org/dc/dcmitype/StillImage" /></cc:Work></rdf:RDF></metadata><defs
     id="defs119" /><sodipodi:namedview
     pagecolor="#ffffff"
     bordercolor="#666666"
     borderopacity="1"
     objecttolerance="10"
     gridtolerance="10"
     guidetolerance="10"
     inkscape:pageopacity="0"
     inkscape:pageshadow="2"
     inkscape:window-width="1920"
     inkscape:window-height="1000"
     id="namedview117"
     showgrid="false"
     inkscape:zoom="0.92037944"
     inkscape:cx="198.91139"
     inkscape:cy="216.78574"
     inkscape:window-x="-11"
     inkscape:window-y="-11"
     inkscape:window-maximized="1"
     inkscape:current-layer="Capa_1" /><g
     id="g6"><g
       id="g4"><path
         d="M440.331,400.555c-2.176-3.221-2.581-4.011-3.925-5.973c5.739,0.725,11.2-3.392,11.925-9.259s-3.435-11.2-9.259-11.925    c-1.579-0.149-9.515-0.853-15.936,4.821c-3.051,2.709-6.72,7.787-6.72,16.448c0,8.533,3.584,13.867,6.187,17.771    c2.603,3.883,4.48,6.677,4.48,14.229c0,8.32-3.179,14.72-44.395,21.483c-28.181,4.608-94.272,28.267-94.272,53.184    c0,5.888,4.629,11.499,10.517,11.499c5.909,0,10.517-3.947,10.517-9.835c3.776-7.616,41.643-28.075,76.693-33.813    c26.261-4.288,62.272-10.176,62.272-42.517C448.416,412.608,443.531,405.355,440.331,400.555z"
         id="path2" /></g></g><g
     id="g12"
     style="fill:#1abb9c;fill-opacity:1"><g
       id="g10"
       style="fill:#1abb9c;fill-opacity:1"><path
         d="M480.416,309.333c0-15.125-31.168-70.912-46.72-97.813c1.451-7.68,4.053-25.237,4.053-51.52    c0-45.547-60.288-160-202.667-160C95.285,0,32.416,106.048,32.416,181.333c0,53.248,31.467,107.819,56.725,151.616    c14.72,25.536,28.608,49.643,28.608,61.717c0,27.157-44.16,80.981-61.163,99.435c-4.011,4.331-3.733,11.072,0.597,15.061    c2.048,1.899,4.651,2.837,7.232,2.837c2.88,0,5.739-1.152,7.829-3.435c6.848-7.403,66.837-73.557,66.837-113.899    c0-17.792-13.867-41.877-31.467-72.363c-24-41.621-53.867-93.419-53.867-140.971c0-52.203,44.331-160,181.333-160    c135.979,0,181.333,109.312,181.333,138.667c0,32.64-4.309,50.581-4.331,50.795c-0.661,2.688-0.235,5.547,1.131,7.936    c21.461,36.864,45.12,82.069,45.909,90.453c-0.981,2.944-12.032,8.64-23.552,11.072c-2.987,0.619-5.547,2.496-7.061,5.12    c-1.493,2.645-1.835,5.803-0.875,8.683l8.576,25.749l-5.995,5.995c-4.16,4.16-4.16,10.923,0,15.083    c4.16,4.16,10.923,4.16,15.083,0l10.667-10.667c2.859-2.859,3.861-7.083,2.581-10.923l-7.125-21.376    C463.669,333.675,480.416,324.971,480.416,309.333z"
         id="path8"
         style="fill:#1abb9c;fill-opacity:1" /></g><path
       style="opacity:0.78699999;fill:#1abb9c;fill-opacity:1;stroke:#000000;stroke-width:0;stroke-miterlimit:4;stroke-dasharray:none;stroke-dashoffset:0;stroke-opacity:1"
       d="m 166.55539,510.36594 c -1.24285,-0.60307 -3.07633,-2.4789 -4.07441,-4.16851 -1.66177,-2.81317 -1.81468,-11.98375 -1.81468,-108.83216 V 291.60513 L 128.88593,259.81174 97.105555,228.01837 96.794681,172.88428 c -0.170981,-30.32374 -0.01366,-56.3564 0.349595,-57.85035 0.37913,-1.55922 10.456544,-12.55981 23.657634,-25.824868 17.35201,-17.436078 23.93388,-23.368836 26.81312,-24.168752 4.97559,-1.38233 41.79699,-1.374982 46.78,0.0093 2.76751,0.768833 7.42549,4.689812 16.56926,13.947609 10.94033,11.076764 12.71949,13.367956 12.71949,16.380014 0,4.684447 -1.56419,7.334437 -5.54405,9.392507 -5.38094,2.78259 -8.40634,1.24915 -19.48564,-9.876417 L 188.41518,84.611696 H 170.9976 153.58002 l -18.18703,18.210664 -18.18703,18.21066 v 49.4177 49.41769 l 31.78037,31.79387 31.78037,31.79386 0.28887,109.45902 c 0.21368,80.96499 -0.0383,110.25016 -0.96792,112.49816 -2.09138,5.05733 -8.49019,7.3992 -13.53226,4.95262 z"
       id="path4970"
       inkscape:connector-curvature="0" /><path
       style="opacity:0.78699999;fill:#1abb9c;fill-opacity:1;stroke:#000000;stroke-width:0;stroke-miterlimit:4;stroke-dasharray:none;stroke-dashoffset:0;stroke-opacity:1"
       d="m 166.21843,510.09327 c -5.6811,-3.14879 -5.47232,1.11357 -5.51363,-112.56036 L 160.6663,291.60513 128.88593,259.81174 97.105555,228.01837 96.794681,172.88428 c -0.170981,-30.32374 -0.01366,-56.3564 0.349595,-57.85035 0.37913,-1.55922 10.456544,-12.55981 23.657634,-25.824868 17.35201,-17.436078 23.93388,-23.368836 26.81312,-24.168752 4.97559,-1.38233 41.79699,-1.374982 46.78,0.0093 2.76751,0.768833 7.42549,4.689812 16.56926,13.947609 11.49675,11.640128 12.71949,13.254295 12.71949,16.791252 0,5.878499 -3.96208,9.960719 -9.66758,9.960719 -4.19676,0 -5.10449,-0.63641 -15.07424,-10.568765 L 188.33339,84.611696 H 170.9567 153.58002 l -18.18703,18.210664 -18.18703,18.21066 v 49.40079 49.40079 l 32.052,32.11751 32.052,32.11753 V 393.5475 c 0,118.93063 0.25415,113.93925 -5.94544,116.76396 -3.61162,1.64557 -5.88115,1.59143 -9.14609,-0.21819 z"
       id="path4972"
       inkscape:connector-curvature="0" /></g><g
     id="g18"><g
       id="g16"><path
         d="M221.301,259.136l-60.885-60.885v-33.835l18.197-18.219c4.16-4.16,4.16-10.923,0-15.083c-4.16-4.16-10.923-4.16-15.083,0    l-21.333,21.333c-1.984,2.005-3.115,4.715-3.115,7.552v42.667c0,2.837,1.131,5.547,3.115,7.552l60.885,60.864v230.251    c0,5.888,4.779,10.667,10.667,10.667s10.667-4.779,10.667-10.667V266.667C224.416,263.829,223.285,261.12,221.301,259.136z"
         id="path14" /></g></g><g
     id="g24"><g
       id="g22"><path
         d="M363.083,192H218.165l-18.219-18.197c-4.16-4.16-10.923-4.16-15.083,0c-4.16,4.16-4.16,10.923,0,15.083l21.333,21.333    c2.005,1.984,4.715,3.115,7.552,3.115h149.333c5.888,0,10.667-4.779,10.667-10.667S368.971,192,363.083,192z"
         id="path20" /></g></g><g
     id="g30"><g
       id="g28"><path
         d="M370.635,131.115c-4.16-4.16-10.923-4.16-15.083,0l-18.219,18.219h-59.584c-5.888,0-10.667,4.779-10.667,10.667    s4.779,10.667,10.667,10.667h64c2.837,0,5.547-1.131,7.552-3.136l21.333-21.333C374.795,142.037,374.795,135.275,370.635,131.115z    "
         id="path26" /></g></g><g
     id="g42"><g
       id="g40"><path
         d="M221.301,88.448l-21.333-21.333c-2.005-1.984-4.715-3.115-7.552-3.115h-42.667c-2.837,0-5.547,1.131-7.552,3.115    l-42.667,42.667c-1.984,2.005-3.115,4.715-3.115,7.552V224c0,2.837,1.131,5.547,3.115,7.531l60.885,60.885v208.917    c0,5.888,4.779,10.667,10.667,10.667s10.667-4.779,10.667-10.667V288c0-2.837-1.131-5.547-3.115-7.531l-60.885-60.885v-97.835    l36.416-36.416H188l18.219,18.197c4.16,4.16,10.923,4.16,15.083,0C225.461,99.371,225.461,92.608,221.301,88.448z"
         id="path38" /></g></g><g
     id="g48"><g
       id="g46"><path
         d="M171.083,117.333c-11.776,0-21.333,9.557-21.333,21.333S159.307,160,171.083,160s21.333-9.557,21.333-21.333    S182.859,117.333,171.083,117.333z"
         id="path44" /></g></g><g
     id="g54"><g
       id="g52"><path
         d="M349.301,237.781c-4.16-4.16-10.923-4.16-15.083,0L316,256h-33.835l-18.219-18.197c-4.16-4.16-10.923-4.16-15.083,0    c-4.16,4.16-4.16,10.923,0,15.083l21.333,21.333c2.005,1.984,4.715,3.115,7.552,3.115h42.667c2.837,0,5.547-1.131,7.552-3.136    l21.333-21.333C353.461,248.704,353.461,241.941,349.301,237.781z"
         id="path50" /></g></g><g
     id="g60"><g
       id="g58"><path
         d="M285.301,429.803l-18.219-18.219v-76.501l18.197-18.219c4.16-4.16,4.16-10.923,0-15.083c-4.16-4.16-10.923-4.16-15.083,0    l-21.333,21.333c-1.984,2.005-3.115,4.715-3.115,7.552V416c0,2.837,1.131,5.547,3.115,7.552l21.333,21.333    c2.091,2.069,4.821,3.115,7.552,3.115c2.731,0,5.461-1.045,7.552-3.115C289.461,440.725,289.461,433.963,285.301,429.803z"
         id="path56" /></g></g><g
     id="g66"><g
       id="g64"><path
         d="M391.947,259.115c-4.16-4.16-10.923-4.16-15.083,0l-85.333,85.333c-1.984,2.005-3.115,4.715-3.115,7.552v42.667    c0,5.888,4.779,10.667,10.667,10.667s10.667-4.779,10.667-10.667v-38.251l82.197-82.219    C396.107,270.037,396.107,263.275,391.947,259.115z"
         id="path62" /></g></g><g
     id="g72"><g
       id="g70"><path
         d="M277.749,416c-11.776,0-21.333,9.557-21.333,21.333s9.557,21.333,21.333,21.333s21.333-9.557,21.333-21.333    S289.525,416,277.749,416z"
         id="path68" /></g></g><g
     id="g78"><g
       id="g76"><path
         d="M370.613,344.448c-4.16-4.16-10.923-4.16-15.083,0l-21.333,21.333c-1.984,2.005-3.115,4.715-3.115,7.552V416    c0,5.888,4.779,10.667,10.667,10.667s10.667-4.779,10.667-10.667v-38.251l18.197-18.219    C374.773,355.371,374.773,348.608,370.613,344.448z"
         id="path74" /></g></g><g
     id="g86" /><g
     id="g88" /><g
     id="g90" /><g
     id="g92" /><g
     id="g94" /><g
     id="g96" /><g
     id="g98" /><g
     id="g100" /><g
     id="g102" /><g
     id="g104" /><g
     id="g106" /><g
     id="g108" /><g
     id="g110" /><g
     id="g112" /><g
     id="g114" /><path
     style="opacity:0.78699999;fill:#1abb9c;fill-opacity:1;stroke:#000000;stroke-width:0;stroke-miterlimit:4;stroke-dasharray:none;stroke-dashoffset:0;stroke-opacity:1"
     d="m 233.55443,143.62861 c -5.53068,-1.45584 -8.59928,-7.99276 -6.16254,-13.12781 0.70149,-1.47827 6.70308,-8.03966 13.33688,-14.58087 l 12.06146,-11.89311 8.83519,-0.4983 c 4.85935,-0.27407 14.55826,-0.49987 21.55313,-0.5018 l 12.71793,-0.003 2.38846,-2.4969 c 2.12226,-2.218616 2.44883,-3.181896 2.93023,-8.643116 0.65075,-7.382244 1.6345,-9.994398 5.28625,-14.036442 5.56206,-6.156538 15.83858,-8.309564 23.0347,-4.825981 8.38142,4.057375 11.98168,9.732697 11.96578,18.862423 -0.0109,6.27818 -1.5453,10.286666 -5.42109,14.162456 -3.53495,3.53494 -7.67447,5.20715 -14.52975,5.86946 -5.73711,0.55429 -5.78872,0.57949 -11.9083,5.81644 l -6.14622,5.25973 -21.20826,0.004 -21.20825,0.004 -3.87289,4.03346 c -15.36094,15.99782 -18.24361,18.02054 -23.65271,16.59671 z"
     id="path4898"
     inkscape:connector-curvature="0" /><path
     style="opacity:0.78699999;fill:#1abb9c;fill-opacity:1;stroke:#000000;stroke-width:0;stroke-miterlimit:4;stroke-dasharray:none;stroke-dashoffset:0;stroke-opacity:1"
     d=""
     id="path4910"
     inkscape:connector-curvature="0" /><path
     style="opacity:0.78699999;fill:#1abb9c;fill-opacity:1;stroke:#000000;stroke-width:0;stroke-miterlimit:4;stroke-dasharray:none;stroke-dashoffset:0;stroke-opacity:1"
     d=""
     id="path4912"
     inkscape:connector-curvature="0" /><path
     style="opacity:0.78699999;fill:#1abb9c;fill-opacity:1;stroke:#000000;stroke-width:0;stroke-miterlimit:4;stroke-dasharray:none;stroke-dashoffset:0;stroke-opacity:1"
     d="m 352.29787,397.00988 c 0,-10.7751 0.10805,-15.18309 0.24012,-9.79554 0.13207,5.38754 0.13207,14.20353 0,19.59107 -0.13207,5.38755 -0.24012,0.97956 -0.24012,-9.79553 z"
     id="path4914"
     inkscape:connector-curvature="0" /><path
     style="opacity:0.78699999;fill:#1abb9c;fill-opacity:1;stroke:#000000;stroke-width:0;stroke-miterlimit:4;stroke-dasharray:none;stroke-dashoffset:0;stroke-opacity:1"
     d="m 352.20199,382.02846 c 0.004,-2.53531 0.14774,-3.47986 0.31873,-2.099 0.17099,1.38086 0.16746,3.45521 -0.008,4.60967 -0.1753,1.15445 -0.3152,0.0247 -0.31089,-2.51067 z"
     id="path4916"
     inkscape:connector-curvature="0" /><path
     style="opacity:0.78699999;fill:#1abb9c;fill-opacity:1;stroke:#000000;stroke-width:0;stroke-miterlimit:4;stroke-dasharray:none;stroke-dashoffset:0;stroke-opacity:1"
     d=""
     id="path4918"
     inkscape:connector-curvature="0" /><path
     style="opacity:0.78699999;fill:#1abb9c;fill-opacity:1;stroke:#000000;stroke-width:0;stroke-miterlimit:4;stroke-dasharray:none;stroke-dashoffset:0;stroke-opacity:1"
     d="m 383.15144,469.55517 c 0.73947,-0.15478 4.16534,-0.82022 7.61305,-1.47874 14.08463,-2.69019 20.974,-4.32952 27.82375,-6.62067 8.7095,-2.91321 14.50807,-6.22472 19.57719,-11.18034 5.83424,-5.70362 8.76726,-11.70235 9.58412,-19.60186 0.16035,-1.55066 0.16038,-6.35168 6e-5,-8.16295 -0.70498,-7.96443 -2.66747,-13.7125 -7.04671,-20.63965 -2.56833,-4.06261 -3.79355,-6.11651 -3.70283,-6.20723 0.0251,-0.0251 0.42836,0.54916 0.89605,1.27621 0.46769,0.72705 1.4866,2.27794 2.26424,3.44641 2.71297,4.07651 4.32997,7.05466 5.49463,10.11992 2.59353,6.82585 3.42487,16.14391 2.07173,23.22067 -2.52192,13.18929 -12.07689,22.36094 -29.48015,28.2975 -7.49625,2.5571 -15.14575,4.2959 -29.15464,6.62713 -2.70129,0.44952 -5.35905,0.90421 -5.90614,1.01043 -0.54708,0.10622 -1.08113,0.18896 -1.18677,0.18386 -0.10564,-0.005 0.41295,-0.1359 1.15242,-0.29069 z"
     id="path4958"
     inkscape:connector-curvature="0" /><path
     style="opacity:0.78699999;fill:#1abb9c;fill-opacity:1;stroke:#000000;stroke-width:0;stroke-miterlimit:4;stroke-dasharray:none;stroke-dashoffset:0;stroke-opacity:1"
     d="m 166.21843,510.09327 c -5.6811,-3.14879 -5.47232,1.11357 -5.51363,-112.56036 L 160.6663,291.60513 128.88593,259.81174 97.105555,228.01837 96.794681,172.88428 c -0.170981,-30.32374 -0.01366,-56.3564 0.349595,-57.85035 0.37913,-1.55922 10.456544,-12.55981 23.657634,-25.824868 17.35201,-17.436078 23.93388,-23.368836 26.81312,-24.168752 4.97559,-1.38233 41.79699,-1.374982 46.78,0.0093 2.76751,0.768833 7.42549,4.689812 16.56926,13.947609 11.49675,11.640128 12.71949,13.254295 12.71949,16.791252 0,5.878499 -3.96208,9.960719 -9.66758,9.960719 -4.19676,0 -5.10449,-0.63641 -15.07424,-10.568765 L 188.33339,84.611696 h -17.09431 -17.09431 l -18.46941,18.118514 -18.4694,18.11852 v 49.49293 49.49294 l 32.052,32.11751 32.052,32.11753 V 393.5475 c 0,118.93063 0.25415,113.93925 -5.94544,116.76396 -3.61162,1.64557 -5.88115,1.59143 -9.14609,-0.21819 z"
     id="path4974"
     inkscape:connector-curvature="0" /><path
     style="opacity:0.78699999;fill:#1abb9c;fill-opacity:1;stroke:#000000;stroke-width:0;stroke-miterlimit:4;stroke-dasharray:none;stroke-dashoffset:0;stroke-opacity:1"
     d="m 164.89114,508.47032 c -2.49538,-2.02064 -2.54676,-2.48268 -3.29248,-29.60736 -0.41664,-15.15507 -0.79687,-63.73857 -0.84495,-107.96333 L 160.6663,290.49099 129.15755,258.9963 97.648809,227.5016 V 170.65516 113.80872 L 119.60003,91.556643 c 12.07317,-12.238641 23.5704,-23.252778 25.54939,-24.47586 3.31707,-2.050064 5.32617,-2.223786 25.71809,-2.223786 17.70003,0 22.74435,0.330097 25.24489,1.652005 3.52567,1.863849 24.56645,22.903006 26.26509,26.26307 2.70431,5.34936 -2.30813,12.483288 -8.77101,12.483288 -2.66285,0 -5.20321,-1.90408 -13.77107,-10.321835 L 189.32952,84.611696 h -17.6841 -17.6841 l -18.35309,17.655764 -18.35309,17.65576 -0.0246,50.36912 -0.0246,50.36912 32.03846,32.20553 32.03847,32.20551 -0.0645,87.46392 c -0.0355,48.10516 -0.42387,97.91936 -0.86306,110.69821 -0.77251,22.47758 -0.88004,23.30029 -3.30181,25.26132 -3.21906,2.60663 -8.92648,2.5946 -12.16233,-0.0256 z"
     id="path4976"
     inkscape:connector-curvature="0" /><path
     style="opacity:0.78699999;fill:#1abb9c;fill-opacity:1;stroke:#000000;stroke-width:0;stroke-miterlimit:4;stroke-dasharray:none;stroke-dashoffset:0;stroke-opacity:1"
     d="m 207.59768,508.90449 -3.47105,-2.9207 V 388.50766 271.03154 l -32.05199,-32.11753 -32.052,-32.11752 v -25.30266 -25.30266 l 5.29665,-5.63913 c 5.05943,-5.38658 5.29578,-5.91469 5.27732,-11.79203 -0.0227,-7.21727 2.15168,-11.60409 8.15761,-16.4583 4.70584,-3.80344 13.23876,-5.10017 19.64603,-2.98558 5.06914,1.67296 11.16527,8.5499 12.76369,14.39849 3.53839,12.94692 -8.19682,27.07034 -21.26862,25.59696 -4.10165,-0.46232 -5.12533,-0.14002 -7.5312,2.37117 -2.74213,2.86217 -2.78433,3.16019 -2.78433,19.66395 v 16.75773 l 32.052,32.11752 32.05199,32.11752 v 121.3149 121.3149 l -2.44464,2.81355 c -1.41899,1.63312 -4.06532,3.07131 -6.30753,3.42794 -3.1398,0.49941 -4.51263,0.0677 -7.33393,-2.30627 z"
     id="path4978"
     inkscape:connector-curvature="0" /><path
     style="opacity:0.78699999;fill:#1abb9c;fill-opacity:1;stroke:#000000;stroke-width:0;stroke-miterlimit:4;stroke-dasharray:none;stroke-dashoffset:0;stroke-opacity:1"
     d="m 207.11453,507.99846 -2.9879,-2.44638 V 387.84193 270.13178 l -32.03237,-32.1872 -32.03237,-32.1872 -0.0196,-24.65394 c -0.0127,-16.00373 0.37903,-24.90033 1.11659,-25.35616 0.62491,-0.38622 3.06956,-3.14809 5.43254,-6.13749 3.51099,-4.44173 4.29633,-6.29823 4.29633,-10.15625 0,-12.14943 8.48279,-20.41901 20.95689,-20.43014 7.00007,-0.006 9.7998,1.51255 15.28797,8.29336 6.78744,8.3861 4.55006,21.06621 -4.92864,27.93255 -3.72859,2.70097 -5.52023,3.24496 -10.68742,3.24496 -5.25867,0 -6.64585,0.43797 -9.0723,2.86443 -2.85579,2.85579 -2.86443,2.9168 -2.86443,20.21851 v 17.35409 l 32.03846,32.20552 32.03847,32.20551 0.0135,120.77748 0.0135,120.77747 -3.34288,2.81286 c -4.16507,3.50468 -9.16495,3.61366 -13.22637,0.28832 z"
     id="path4980"
     inkscape:connector-curvature="0" /><path
     style="opacity:0.78699999;fill:#1abb9c;fill-opacity:1;stroke:#000000;stroke-width:0;stroke-miterlimit:4;stroke-dasharray:none;stroke-dashoffset:0;stroke-opacity:1"
     d="m 269.86039,456.37514 c -8.33794,-3.98393 -12.49484,-10.43195 -12.49484,-19.38148 0,-4.40853 -0.58235,-5.57502 -5.43255,-10.88192 l -5.43254,-5.94406 v -46.79914 -46.79913 l 12.22322,-12.45584 c 11.94576,-12.1731 16.90646,-15.76301 20.31513,-14.70144 4.1182,1.28253 6.42158,2.92797 7.54245,5.38801 2.6359,5.78518 1.66617,7.73163 -9.65856,19.38666 l -10.86509,11.18197 v 37.9377 37.93771 l 2.9879,2.83009 c 2.43719,2.30847 4.05232,2.83521 8.76302,2.85788 11.13319,0.0536 19.3732,7.65091 20.47033,18.87375 0.45645,4.66914 0.0766,6.62472 -2.06128,10.6131 -5.31013,9.90629 -17.1228,14.3684 -26.35719,9.95614 z"
     id="path4982"
     inkscape:connector-curvature="0" /><path
     style="opacity:0.78699999;fill:#1abb9c;fill-opacity:1;stroke:#000000;stroke-width:0;stroke-miterlimit:4;stroke-dasharray:none;stroke-dashoffset:0;stroke-opacity:1"
     d="m 267.46172,454.38995 c -5.60787,-3.63621 -8.7457,-9.14604 -9.66549,-16.97202 -0.62105,-5.28415 -1.42184,-6.88833 -6.00618,-12.03185 l -5.28959,-5.93478 V 373.39315 327.335 l 13.3191,-13.16754 c 7.44105,-7.35638 14.58195,-13.4845 16.18061,-13.88574 6.46772,-1.62329 13.46139,6.22109 10.51055,11.78907 -0.68132,1.28559 -5.56199,7.03116 -10.84593,12.76794 l -9.60718,10.43051 v 38.66001 38.66001 l 3.15563,2.24701 c 1.82515,1.29962 4.91728,2.26711 7.33393,2.29469 12.70511,0.14501 21.01919,8.42496 21.01919,20.93292 0,4.77664 -0.59813,6.68176 -3.24496,10.3356 -6.49617,8.9677 -18.23159,11.58503 -26.85968,5.99047 z"
     id="path4984"
     inkscape:connector-curvature="0" /><path
     style="opacity:0.78699999;fill:#1abb9c;fill-opacity:1;stroke:#000000;stroke-width:0;stroke-miterlimit:4;stroke-dasharray:none;stroke-dashoffset:0;stroke-opacity:1"
     d="m 294.42643,403.65965 c -5.09692,-2.91177 -5.47254,-5.03024 -5.51364,-31.09645 l -0.0385,-24.41967 45.59777,-45.63543 c 45.39011,-45.42759 45.61826,-45.63543 50.0947,-45.63543 5.76904,0 9.69885,4.06374 9.69885,10.02943 0,3.79088 -2.02973,6.01553 -42.32299,46.38764 l -42.32299,42.4058 -0.32247,21.4364 c -0.31923,21.22138 -0.34971,21.4636 -3.03874,24.1485 -3.35043,3.34528 -8.37305,4.35525 -11.83199,2.37921 z"
     id="path4986"
     inkscape:connector-curvature="0" /><path
     style="opacity:0.78699999;fill:#1abb9c;fill-opacity:1;stroke:#000000;stroke-width:0;stroke-miterlimit:4;stroke-dasharray:none;stroke-dashoffset:0;stroke-opacity:1"
     d="m 293.14765,402.03178 c -2.20236,-1.78336 -2.58064,-3.36598 -3.31117,-13.85298 -0.45361,-6.51177 -0.7815,-18.19567 -0.72864,-25.96421 l 0.0961,-14.1246 45.80421,-45.36173 c 40.26022,-39.87129 46.20613,-45.36173 49.12479,-45.36173 7.03962,0 11.77899,7.50662 8.23171,13.0381 -0.95805,1.49395 -19.86825,21.19266 -42.02268,43.77491 l -40.28077,41.05863 -0.67287,7.83425 c -0.37008,4.30883 -0.73677,13.86123 -0.81488,21.22754 -0.14074,13.27346 -0.17043,13.42173 -3.31796,16.56926 -3.7289,3.72891 -8.38629,4.17609 -12.10784,1.16256 z"
     id="path4988"
     inkscape:connector-curvature="0" /><path
     style="opacity:0.78699999;fill:#1abb9c;fill-opacity:1;stroke:#000000;stroke-width:0;stroke-miterlimit:4;stroke-dasharray:none;stroke-dashoffset:0;stroke-opacity:1"
     d="m 294.0674,402.88965 c -3.0336,-1.7681 -3.9533,-7.89009 -4.72315,-31.43973 l -0.72813,-22.27343 44.94755,-44.55049 c 24.72116,-24.50277 46.29996,-45.24682 47.95289,-46.0979 2.64503,-1.3619 3.45572,-1.33264 6.76215,0.24409 4.00014,1.90754 5.60642,5.41196 4.50042,9.8186 -0.34955,1.39271 -19.1595,21.51211 -41.79989,44.70979 l -41.16434,42.17761 -0.68522,8.80074 c -0.37687,4.84041 -0.68815,13.83655 -0.69173,19.99142 -0.007,12.40742 -1.27605,16.34631 -5.95195,18.47678 -3.42734,1.5616 -5.91166,1.60366 -8.4186,0.14252 z"
     id="path4990"
     inkscape:connector-curvature="0" /><path
     style="opacity:0.78699999;fill:#1abb9c;fill-opacity:1;stroke:#000000;stroke-width:0;stroke-miterlimit:4;stroke-dasharray:none;stroke-dashoffset:0;stroke-opacity:1"
     d="m 293.91152,402.65794 c -2.92113,-2.13598 -3.79629,-8.18667 -4.59245,-31.75128 l -0.73418,-21.73017 44.98801,-44.54684 c 24.74341,-24.50077 46.32923,-45.24482 47.9685,-46.09791 2.62494,-1.36603 3.42863,-1.33735 6.73731,0.24045 4.17796,1.99233 5.82242,5.94928 4.24159,10.20623 -0.53403,1.43806 -19.30579,21.46728 -41.71503,44.50938 l -40.74407,41.89471 -0.67992,7.21882 c -0.37396,3.97036 -0.74066,12.98802 -0.81488,20.03925 -0.14846,14.10344 -1.30601,17.9312 -6.0804,20.10655 -3.66456,1.66969 -6.20521,1.64327 -8.57448,-0.0892 z"
     id="path4992"
     inkscape:connector-curvature="0" /><path
     style="opacity:0.78699999;fill:#1abb9c;fill-opacity:1;stroke:#000000;stroke-width:0;stroke-miterlimit:4;stroke-dasharray:none;stroke-dashoffset:0;stroke-opacity:1"
     d="m 269.86039,455.47483 c -6.93431,-3.6639 -10.52663,-9.00529 -11.93627,-17.7479 -0.91084,-5.64907 -3.36738,-10.08331 -8.08803,-14.59951 l -3.33563,-3.19117 v -46.26643 -46.26641 l 10.0502,-9.82457 c 16.56241,-16.19056 19.06714,-18.12763 22.37791,-17.30625 4.47059,1.10913 7.7727,4.80332 7.7727,8.6956 0,2.79278 -1.87871,5.4856 -10.29072,14.7501 l -10.29072,11.33359 -0.0311,38.81763 -0.0311,38.81763 2.79558,1.83173 c 1.53756,1.00745 5.54254,2.26249 8.89995,2.78899 12.76721,2.0021 18.48869,7.58624 19.45551,18.98853 0.47867,5.64521 0.19158,6.85402 -2.68951,11.32417 -5.44971,8.4555 -16.72425,12.04665 -24.65875,7.85427 z"
     id="path4994"
     inkscape:connector-curvature="0" /><path
     style="opacity:0.78699999;fill:#1abb9c;fill-opacity:1;stroke:#000000;stroke-width:0;stroke-miterlimit:4;stroke-dasharray:none;stroke-dashoffset:0;stroke-opacity:1"
     d="m 207.66126,508.07835 -3.49708,-2.44464 -0.0188,-117.89308 -0.0188,-117.89306 -32.10158,-32.0451 -32.10158,-32.04509 0.32121,-24.44644 0.32121,-24.44644 5.16092,-6.2897 c 4.32407,-5.26983 5.16478,-7.0316 5.18477,-10.86508 0.0327,-6.27581 3.28921,-12.91224 8.15842,-16.62616 5.47827,-4.17848 16.55204,-5.00218 21.92485,-1.63084 4.82577,3.02809 9.16482,9.9958 9.81457,15.76039 1.23803,10.98375 -8.38422,21.28116 -19.88585,21.28116 -4.61802,0 -6.12349,0.50856 -8.47935,2.86443 -2.85798,2.85798 -2.86443,2.9039 -2.86443,20.37894 v 17.51451 l 32.05667,32.04285 32.05667,32.04285 -0.2763,121.1047 -0.2763,121.10469 -3.69183,2.48788 c -4.63863,3.12591 -7.36335,3.1359 -11.78744,0.0432 z"
     id="path4996"
     inkscape:connector-curvature="0" /><path
     style="opacity:0.78699999;fill:#1abb9c;fill-opacity:1;stroke:#000000;stroke-width:0;stroke-miterlimit:4;stroke-dasharray:none;stroke-dashoffset:0;stroke-opacity:1"
     d="m 164.89051,508.46981 c -2.52336,-2.04329 -2.53919,-2.21207 -3.28672,-35.0399 -0.41312,-18.14269 -0.79307,-66.72596 -0.84432,-107.96282 L 160.6663,290.49099 129.15755,258.9963 97.648809,227.5016 V 170.63433 113.76706 L 116.39108,94.700035 c 10.30825,-10.486863 21.57899,-21.447179 25.0461,-24.356258 l 6.30383,-5.289233 h 23.14051 23.1405 l 4.23743,3.141101 c 5.99347,4.442816 21.74734,20.706772 23.64254,24.408051 2.94851,5.758369 -1.57232,12.651664 -8.29735,12.651664 -2.41541,0 -5.36257,-2.21823 -13.71373,-10.321835 L 189.25377,84.611696 H 171.6146 153.97543 l -18.38474,17.625314 -18.38473,17.62531 v 50.56 50.55999 l 32.052,32.03819 32.052,32.03819 -0.0705,84.75455 c -0.0388,46.61502 -0.44267,96.43994 -0.89752,110.72206 -0.80423,25.25233 -0.89537,26.02285 -3.30938,27.97759 -3.20054,2.59165 -8.91332,2.57137 -12.14203,-0.043 z"
     id="path4998"
     inkscape:connector-curvature="0" /><path
     style="opacity:0.78699999;fill:#1abb9c;fill-opacity:1;stroke:#000000;stroke-width:0;stroke-miterlimit:4;stroke-dasharray:none;stroke-dashoffset:0;stroke-opacity:1"
     d="m 260.39957,263.02458 c -12.61845,-12.61845 -13.89911,-14.25662 -13.89911,-17.77923 0,-5.53513 4.2731,-9.60899 10.07893,-9.60899 4.03323,0 5.11527,0.7518 14.85596,10.32183 l 10.50588,10.32183 h 17.25489 17.25489 l 10.50588,-10.32183 c 9.78205,-9.61067 10.80916,-10.32183 14.90753,-10.32183 3.58128,0 4.9259,0.62304 7.2145,3.34289 5.41197,6.43176 4.45782,8.50126 -11.08625,24.04533 l -13.89911,13.8991 h -24.89744 -24.89744 z"
     id="path5000"
     inkscape:connector-curvature="0" /><path
     style="opacity:0.78699999;fill:#1abb9c;fill-opacity:1;stroke:#000000;stroke-width:0;stroke-miterlimit:4;stroke-dasharray:none;stroke-dashoffset:0;stroke-opacity:1"
     d="m 261.56928,263.46043 c -6.95044,-7.23591 -13.1955,-14.24513 -13.87793,-15.57603 -1.99015,-3.88129 0.91209,-9.5248 5.71306,-11.10927 5.04331,-1.66444 6.39284,-0.90551 18.573,10.44476 l 9.72258,9.06013 h 17.62016 17.62016 l 10.25638,-9.65551 c 5.64101,-5.31053 11.29704,-9.9858 12.56896,-10.3895 5.09688,-1.61768 13.05882,5.54919 11.56207,10.4075 -0.43636,1.41636 -6.94211,8.80905 -14.45722,16.42819 l -13.66384,13.85298 -24.50011,-0.15352 -24.50012,-0.15352 z"
     id="path5002"
     inkscape:connector-curvature="0" /><path
     style="opacity:0.78699999;fill:#1abb9c;fill-opacity:1;stroke:#000000;stroke-width:0;stroke-miterlimit:4;stroke-dasharray:none;stroke-dashoffset:0;stroke-opacity:1"
     d="m 261.3023,262.76751 c -11.92641,-12.30975 -13.71533,-14.62336 -13.71533,-17.73799 0,-5.4861 4.44928,-8.89561 11.00313,-8.43176 0.9723,0.0688 6.50614,4.52547 12.29742,9.90369 l 10.5296,9.77857 h 17.96551 17.96551 l 10.19432,-9.64788 c 5.60687,-5.30633 11.10968,-9.88725 12.22847,-10.17982 3.29305,-0.86115 8.58412,2.01543 10.49149,5.70387 2.28536,4.41941 2.06995,4.74726 -14.22123,21.64473 l -12.65191,13.12276 h -24.18583 -24.18583 z"
     id="path5004"
     inkscape:connector-curvature="0" /><path
     style="opacity:0.78699999;fill:#1abb9c;fill-opacity:1;stroke:#000000;stroke-width:0;stroke-miterlimit:4;stroke-dasharray:none;stroke-dashoffset:0;stroke-opacity:1"
     d="m 196.29557,198.92058 c -12.16545,-12.16545 -13.8991,-14.34422 -13.8991,-17.46771 0,-5.13774 5.00932,-9.9205 10.39044,-9.9205 3.63912,0 5.07539,1.01867 14.52183,10.29962 l 10.48328,10.29962 74.56834,0.29383 74.56834,0.29384 2.71144,2.54768 c 1.4913,1.40122 3.0113,3.74241 3.37779,5.20264 0.88992,3.54569 -2.07516,9.56384 -5.47526,11.11304 -1.94903,0.88803 -24.52857,1.23705 -80.03151,1.23705 h -77.31648 z"
     id="path5006"
     inkscape:connector-curvature="0" /><path
     style="opacity:0.78699999;fill:#1abb9c;fill-opacity:1;stroke:#000000;stroke-width:0;stroke-miterlimit:4;stroke-dasharray:none;stroke-dashoffset:0;stroke-opacity:1"
     d="m 197.46528,199.46742 c -6.95043,-7.29695 -13.18434,-14.33526 -13.85314,-15.64069 -3.11043,-6.0713 6.05468,-14.27351 12.26971,-10.98063 1.24794,0.66119 6.52636,5.20184 11.72981,10.09035 l 9.46083,8.88819 29.55837,0.71895 c 16.2571,0.39542 49.86496,0.71895 74.68413,0.71895 h 45.12574 l 3.04736,2.91954 c 1.67604,1.60575 3.04735,4.07468 3.04735,5.4865 0,3.47087 -2.73988,8.5421 -5.12073,9.47793 -1.06787,0.41975 -36.89999,0.94878 -79.62693,1.17564 l -77.68535,0.41247 z"
     id="path5008"
     inkscape:connector-curvature="0" /><path
     style="opacity:0.78699999;fill:#1abb9c;fill-opacity:1;stroke:#000000;stroke-width:0;stroke-miterlimit:4;stroke-dasharray:none;stroke-dashoffset:0;stroke-opacity:1"
     d="m 196.7927,198.51565 c -10.90175,-11.5325 -13.30973,-14.66626 -13.30973,-17.3214 0,-4.54479 4.27451,-8.57537 9.09434,-8.57537 3.23657,0 5.18134,1.33754 13.95693,9.59901 l 10.19637,9.59902 23.84862,0.72015 c 13.11674,0.39608 46.90704,0.72135 75.08956,0.72281 l 51.24093,0.003 2.90912,3.45728 c 3.47367,4.12821 3.11937,8.81317 -0.93692,12.38921 -2.50876,2.21173 -3.88341,2.28217 -58.30805,2.9879 -30.6563,0.39752 -65.80359,0.67231 -78.10508,0.61064 l -22.36636,-0.11217 z"
     id="path5010"
     inkscape:connector-curvature="0" /><path
     style="opacity:0.78699999;fill:#1abb9c;fill-opacity:1;stroke:#000000;stroke-width:0;stroke-miterlimit:4;stroke-dasharray:none;stroke-dashoffset:0;stroke-opacity:1"
     d="m 196.7927,198.49441 c -10.67826,-11.43139 -13.30973,-14.87057 -13.30973,-17.39511 0,-4.44638 4.32608,-8.48042 9.09434,-8.48042 3.23656,0 5.18133,1.33752 13.95669,9.59878 l 10.19612,9.59879 28.09952,0.72304 c 15.45473,0.39768 49.24515,0.72305 75.0898,0.72305 h 46.99028 l 2.90912,3.45728 c 3.3456,3.97602 3.12208,8.57066 -0.59804,12.29332 -2.06739,2.0688 -4.10079,2.21144 -40.98928,2.87529 -21.34769,0.38417 -56.65988,0.73358 -78.47153,0.77646 l -39.65756,0.078 z"
     id="path5012"
     inkscape:connector-curvature="0" /><path
     style="opacity:0.78699999;fill:#1abb9c;fill-opacity:1;stroke:#000000;stroke-width:0;stroke-miterlimit:4;stroke-dasharray:none;stroke-dashoffset:0;stroke-opacity:1"
     d="m 274.20643,169.41872 c -3.72334,-1.52393 -6.18195,-5.17689 -6.30056,-9.36125 -0.0913,-3.21956 0.5742,-4.62274 3.38224,-7.13172 l 3.49585,-3.12355 h 31.15245 31.15246 l 9.92349,-9.73162 c 5.45791,-5.35239 11.18074,-10.20963 12.71739,-10.79386 7.59258,-2.88669 15.38327,4.56654 12.83721,12.28116 -1.14982,3.48399 -22.458,25.45223 -26.85118,27.68294 -2.8037,1.42363 -68.06904,1.58599 -71.50935,0.1779 z"
     id="path5014"
     inkscape:connector-curvature="0" /><path
     style="opacity:0.78699999;fill:#1abb9c;fill-opacity:1;stroke:#000000;stroke-width:0;stroke-miterlimit:4;stroke-dasharray:none;stroke-dashoffset:0;stroke-opacity:1"
     d="m 289.21777,169.69845 -15.4109,-0.39788 -2.78812,-3.3135 c -3.84491,-4.56941 -3.60227,-8.45044 0.79476,-12.71221 l 3.58288,-3.47266 h 30.91578 30.91579 l 11.23411,-10.32183 c 12.80784,-11.76775 15.39192,-12.65138 20.89742,-7.14588 5.93489,5.93489 4.95223,8.2161 -10.13378,23.52536 l -13.30973,13.50669 -13.58135,0.004 c -7.46975,0.002 -16.7594,0.16647 -20.64366,0.36489 -3.88427,0.19843 -13.99721,0.18172 -22.4732,-0.0371 z"
     id="path5016"
     inkscape:connector-curvature="0" /><path
     style="opacity:0.78699999;fill:#1abb9c;fill-opacity:1;stroke:#000000;stroke-width:0;stroke-miterlimit:4;stroke-dasharray:none;stroke-dashoffset:0;stroke-opacity:1"
     d="m 272.34142,167.45796 c -2.2791,-2.61281 -4.11079,-6.31612 -4.11079,-8.3112 0,-0.91486 1.51744,-3.39165 3.37208,-5.50397 l 3.37208,-3.84059 h 31.24665 31.24666 l 8.56997,-7.88591 c 10.52138,-9.68156 14.76945,-12.75775 17.61782,-12.75775 2.8702,0 8.87955,6.05494 8.87955,8.94691 0,3.09282 -6.76238,11.60079 -17.72759,22.30366 l -9.16961,8.95024 H 309.8191 c -32.7573,0 -35.96091,-0.16253 -37.47768,-1.90139 z"
     id="path5018"
     inkscape:connector-curvature="0" /><path
     style="opacity:0.78699999;fill:#1abb9c;fill-opacity:1;stroke:#000000;stroke-width:0;stroke-miterlimit:4;stroke-dasharray:none;stroke-dashoffset:0;stroke-opacity:1"
     d="m 272.34142,167.45796 c -2.2791,-2.61281 -4.11079,-6.31612 -4.11079,-8.3112 0,-0.91486 1.51744,-3.39165 3.37208,-5.50397 l 3.37208,-3.84059 h 31.15474 31.15473 l 8.68563,-7.89831 c 15.55071,-14.14111 17.42841,-14.9017 23.09976,-9.3569 5.97406,5.84075 4.7883,8.29071 -12.68971,26.2189 l -10.32746,10.59346 h -36.02626 c -32.95456,0 -36.16767,-0.16212 -37.6848,-1.90139 z"
     id="path5020"
     inkscape:connector-curvature="0" /><path
     style="opacity:0.78699999;fill:#1abb9c;fill-opacity:1;stroke:#000000;stroke-width:0;stroke-miterlimit:4;stroke-dasharray:none;stroke-dashoffset:0;stroke-opacity:1"
     d="m 272.34142,167.45796 c -2.2791,-2.61281 -4.11079,-6.31612 -4.11079,-8.3112 0,-0.91486 1.51744,-3.39165 3.37208,-5.50397 l 3.37208,-3.84059 h 31.00406 31.00407 l 6.99014,-6.24742 c 17.90108,-15.99906 19.55046,-16.72195 25.21927,-11.05314 5.86861,5.8686 4.68631,8.34607 -12.27448,25.721 l -10.87126,11.13671 h -36.02332 c -32.95175,0 -36.16472,-0.16212 -37.68185,-1.90139 z"
     id="path5022"
     inkscape:connector-curvature="0" /><path
     style="opacity:0.78699999;fill:#1abb9c;fill-opacity:1;stroke:#000000;stroke-width:0;stroke-miterlimit:4;stroke-dasharray:none;stroke-dashoffset:0;stroke-opacity:1"
     d="m 271.69626,166.86247 c -1.29013,-1.37328 -2.64468,-3.99184 -3.01012,-5.81901 -0.54333,-2.71665 -0.0308,-4.04382 2.81211,-7.2817 l 3.47654,-3.95956 h 31.00001 31.00002 l 8.81661,-7.92589 c 15.98492,-14.37 17.94594,-15.16395 23.56806,-9.54182 5.78524,5.78524 4.4306,8.60394 -12.44164,25.88815 l -10.87126,11.13671 h -36.00232 -36.00231 z"
     id="path5024"
     inkscape:connector-curvature="0" /><path
     style="opacity:0.78699999;fill:#1abb9c;fill-opacity:1;stroke:#000000;stroke-width:0;stroke-miterlimit:4;stroke-dasharray:none;stroke-dashoffset:0;stroke-opacity:1"
     d="m 335.98565,424.18885 c -4.3745,-3.06402 -4.87828,-6.56013 -4.52716,-31.41743 l 0.33288,-23.56605 13.66625,-13.54559 c 11.83768,-11.73317 14.13692,-13.54559 17.18393,-13.54559 4.92875,0 7.65379,1.7471 9.4572,6.06325 2.25699,5.40175 0.30677,8.99261 -10.85612,19.98896 l -9.35085,9.21134 v 21.02285 21.02285 l -3.17595,3.17595 c -3.58472,3.58472 -8.9289,4.25198 -12.73018,1.58946 z"
     id="path5026"
     inkscape:connector-curvature="0" /><path
     style="opacity:0.78699999;fill:#1abb9c;fill-opacity:1;stroke:#000000;stroke-width:0;stroke-miterlimit:4;stroke-dasharray:none;stroke-dashoffset:0;stroke-opacity:1"
     d="m 338.15505,424.69798 c -5.45168,-2.20003 -5.82042,-4.13287 -5.82042,-30.50854 V 369.6061 l 12.55486,-12.38782 c 6.90517,-6.8133 13.77078,-13.02539 15.2569,-13.80464 4.66367,-2.44542 10.62376,0.74225 11.85312,6.33947 0.97529,4.44044 -1.46452,8.35444 -11.40293,18.29285 l -8.7048,8.7048 v 21.06337 c 0,20.45941 -0.0701,21.12721 -2.44465,23.29001 -2.66559,2.42788 -6.67336,4.71142 -8.07738,4.60233 -0.48747,-0.0379 -1.93409,-0.4917 -3.2147,-1.00849 z"
     id="path5028"
     inkscape:connector-curvature="0" /><path
     style="opacity:0.78699999;fill:#1abb9c;fill-opacity:1;stroke:#000000;stroke-width:0;stroke-miterlimit:4;stroke-dasharray:none;stroke-dashoffset:0;stroke-opacity:1"
     d="m 338.2727,424.73137 c -5.14251,-2.0609 -5.3742,-3.26429 -5.75164,-29.87364 l -0.35682,-25.15539 13.70852,-13.25082 c 11.38628,-11.00612 14.26567,-13.25082 16.9975,-13.25082 4.48509,0 6.95477,1.5121 8.47872,5.19124 1.95288,4.71466 0.083,8.12021 -10.26489,18.69488 l -9.19231,9.39378 v 19.68735 c 0,10.82804 -0.44434,20.85605 -0.98743,22.28447 -1.70163,4.47562 -8.58886,7.89914 -12.63165,6.27895 z"
     id="path5030"
     inkscape:connector-curvature="0" /><path
     style="opacity:0.78699999;fill:#1abb9c;fill-opacity:1;stroke:#000000;stroke-width:0;stroke-miterlimit:4;stroke-dasharray:none;stroke-dashoffset:0;stroke-opacity:1"
     d="m 338.2727,424.73137 c -5.13961,-2.05974 -5.37348,-3.27109 -5.76518,-29.8613 l -0.37035,-25.14156 13.72205,-13.26391 c 11.39827,-11.0177 14.27903,-13.2639 17.01104,-13.2639 4.48509,0 6.95477,1.5121 8.47872,5.19124 1.95288,4.71466 0.083,8.12021 -10.26489,18.69488 l -9.19231,9.39378 v 19.68735 c 0,10.82804 -0.46711,20.91593 -1.03801,22.41753 -1.72282,4.53135 -8.43184,7.80873 -12.58107,6.14589 z"
     id="path5032"
     inkscape:connector-curvature="0" /><path
     style="opacity:0.78699999;fill:#1abb9c;fill-opacity:1;stroke:#000000;stroke-width:0;stroke-miterlimit:4;stroke-dasharray:none;stroke-dashoffset:0;stroke-opacity:1"
     d="m 338.2727,424.73137 c -5.14251,-2.0609 -5.3742,-3.26429 -5.75164,-29.87364 l -0.35682,-25.15539 13.70852,-13.25082 c 11.38628,-11.00612 14.26567,-13.25082 16.9975,-13.25082 4.48509,0 6.95477,1.5121 8.47872,5.19124 1.95288,4.71466 0.083,8.12021 -10.26489,18.69488 l -9.19231,9.39378 v 19.68735 c 0,10.82804 -0.46711,20.91593 -1.03801,22.41753 -1.72282,4.53135 -8.43184,7.80873 -12.58107,6.14589 z"
     id="path5034"
     inkscape:connector-curvature="0" /><path
     style="opacity:0.78699999;fill:#1abb9c;fill-opacity:1;stroke:#000000;stroke-width:0;stroke-miterlimit:4;stroke-dasharray:none;stroke-dashoffset:0;stroke-opacity:1"
     d="m 295.93659,511.69227 c -7.45628,-3.13209 -8.81786,-12.52433 -3.02507,-20.86712 6.77335,-9.755 27.07696,-22.08745 51.41126,-31.22731 14.33766,-5.38516 27.93282,-9.03477 47.00484,-12.61842 17.95811,-3.37434 28.72289,-7.15221 32.94905,-11.56338 2.70694,-2.82543 3.09248,-4.03354 3.00894,-9.42858 -0.08,-5.16601 -0.93045,-7.76565 -5.14959,-15.74144 -4.06215,-7.67904 -5.05374,-10.61714 -5.05374,-14.97439 0,-6.05857 2.19814,-12.23003 5.67379,-15.9297 2.85673,-3.04084 4.83037,-3.13527 5.73833,-0.27454 0.80556,2.53809 5.83731,5.42244 9.44921,5.41657 1.37423,-0.002 4.08762,-0.97291 6.02976,-2.15705 l 3.53115,-2.15299 v 3.87039 c 0,4.75298 -4.89116,10.22228 -9.1417,10.22228 h -2.78981 l 3.22848,5.24695 c 5.45678,8.86839 7.59886,14.85482 8.29097,23.17053 0.79866,9.59586 -0.5195,15.12237 -5.30688,22.24943 -7.39707,11.01217 -18.36581,15.90572 -50.7795,22.65452 -23.09271,4.8081 -41.13908,10.63645 -57.04169,18.42248 -15.50933,7.59348 -24.33662,13.91318 -25.15595,18.00984 -1.13798,5.68988 -7.93955,9.74378 -12.87185,7.67193 z"
     id="path5036"
     inkscape:connector-curvature="0" /><path
     style="opacity:0.78699999;fill:#1abb9c;fill-opacity:1;stroke:#000000;stroke-width:0;stroke-miterlimit:4;stroke-dasharray:none;stroke-dashoffset:0;stroke-opacity:1"
     d="m 294.21268,510.21681 c -6.80897,-5.22776 -5.02733,-16.70215 3.79627,-24.44938 17.72617,-15.56378 48.35331,-28.55484 87.56459,-37.14211 11.05522,-2.4211 22.54505,-5.19074 25.53295,-6.15477 17.7767,-5.73554 20.60397,-13.16033 11.90024,-31.25167 -5.13422,-10.67184 -6.08035,-15.03186 -4.67945,-21.56402 1.04475,-4.87156 5.39492,-11.68589 7.46008,-11.68589 0.49849,0 2.37313,1.46678 4.16586,3.25952 3.76988,3.76988 9.95647,4.43538 14.12028,1.51894 3.25971,-2.28319 3.92299,-1.41248 2.41189,3.16617 -1.46289,4.43262 -3.87362,6.82692 -7.88048,7.82679 l -2.92383,0.72961 5.04628,9.6689 c 4.77654,9.15207 5.07041,10.22083 5.49788,19.99477 0.41387,9.46273 0.21104,10.81759 -2.42643,16.2084 -1.58294,3.2354 -4.89018,7.70037 -7.34944,9.92216 -8.09818,7.31622 -15.68762,9.95011 -56.00435,19.43611 -18.33888,4.31489 -30.85169,8.7015 -46.48063,16.29469 -16.8905,8.20611 -22.56888,12.19886 -25.48889,17.92255 -3.55399,6.96639 -9.80059,9.72522 -14.26282,6.29923 z"
     id="path5038"
     inkscape:connector-curvature="0" /><path
     style="opacity:0.78699999;fill:#1abb9c;fill-opacity:1;stroke:#000000;stroke-width:0;stroke-miterlimit:4;stroke-dasharray:none;stroke-dashoffset:0;stroke-opacity:1"
     d="m 292.65733,508.12837 c -5.93601,-7.05455 -1.79155,-17.09204 11.07349,-26.81896 17.31967,-13.09496 45.71147,-24.20296 85.10224,-33.29539 25.03958,-5.77979 31.84469,-8.33341 36.29182,-13.61853 2.73887,-3.25496 3.01341,-4.26044 2.49205,-9.12695 -0.32225,-3.00795 -2.57991,-9.93552 -5.01702,-15.3946 -3.24653,-7.27214 -4.42474,-11.3386 -4.40726,-15.21112 0.0252,-5.59606 2.78381,-12.98954 5.76775,-15.4588 1.55499,-1.28678 2.29571,-1.03717 5.64254,1.90139 4.18212,3.67194 9.03778,4.40436 14.05226,2.11961 3.74861,-1.70798 4.28465,-0.7956 2.30965,3.93122 -1.20713,2.8891 -2.84056,4.49081 -5.92149,5.80655 l -4.25453,1.81694 4.85073,9.65837 c 4.32804,8.61764 4.91788,10.6951 5.47405,19.27963 0.59796,9.22967 0.48198,9.90839 -2.84976,16.6761 -4.10335,8.33509 -9.95586,13.57423 -19.49198,17.4491 -3.63752,1.47806 -18.73174,5.67245 -33.54272,9.32087 -29.44291,7.25275 -41.89821,11.45885 -58.43778,19.7342 -14.75839,7.38416 -19.68601,10.96728 -23.41343,17.02511 -5.10458,8.29599 -10.96042,9.86243 -15.72061,4.20526 z"
     id="path5040"
     inkscape:connector-curvature="0" /><path
     style="opacity:0.78699999;fill:#1abb9c;fill-opacity:1;stroke:#000000;stroke-width:0;stroke-miterlimit:4;stroke-dasharray:none;stroke-dashoffset:0;stroke-opacity:1"
     d="m 293.00129,508.2981 c -2.95004,-2.95004 -3.25166,-3.84147 -2.76392,-8.1687 0.74924,-6.64724 4.73114,-12.2047 13.39164,-18.69048 18.63009,-13.95194 44.73623,-24.16884 85.55466,-33.48267 23.34437,-5.32666 29.41012,-7.51406 34.64445,-12.49336 4.30302,-4.09337 4.4089,-4.36502 3.77785,-9.69317 -0.35707,-3.01497 -2.62652,-10.10975 -5.0432,-15.76617 -3.11118,-7.28192 -4.38701,-11.79402 -4.37012,-15.45532 0.0255,-5.52848 2.80936,-12.89602 5.8116,-15.3806 1.59425,-1.31936 2.14899,-1.23065 4.2466,0.67911 5.17142,4.7083 10.1088,5.79109 15.40435,3.37828 3.74861,-1.70798 4.28465,-0.7956 2.30965,3.93122 -1.20204,2.87689 -2.84134,4.49114 -5.87764,5.78782 l -4.21068,1.79822 4.84366,10.01873 c 4.22514,8.73942 4.91661,11.18832 5.41507,19.17802 0.51105,8.19157 0.2809,9.79385 -2.17832,15.1655 -3.50155,7.64839 -9.68307,13.82531 -17.56909,17.55599 -3.41277,1.6145 -17.78132,5.86348 -31.93011,9.44218 -32.23774,8.154 -43.22923,11.7061 -58.49935,18.90512 -16.03417,7.55924 -23.92926,12.91516 -27.32488,18.53684 -2.81381,4.65846 -7.25021,8.06484 -10.50349,8.06484 -0.99953,0 -3.30746,-1.49013 -5.12873,-3.3114 z"
     id="path5042"
     inkscape:connector-curvature="0" /><path
     style="opacity:0.78699999;fill:#1abb9c;fill-opacity:1;stroke:#000000;stroke-width:0;stroke-miterlimit:4;stroke-dasharray:none;stroke-dashoffset:0;stroke-opacity:1"
     d="m 293.00129,508.2981 c -2.95004,-2.95004 -3.25166,-3.84147 -2.76392,-8.1687 1.16137,-10.3036 11.72568,-19.90367 33.94844,-30.84983 17.44734,-8.59396 30.78724,-13.04286 62.2978,-20.77653 26.34333,-6.46548 34.61937,-9.46295 38.74749,-14.03384 3.44841,-3.81829 2.7122,-10.72284 -2.53215,-23.74793 -3.08873,-7.6713 -4.52256,-12.85696 -4.5063,-16.29763 0.0254,-5.38202 2.82859,-12.78743 5.75794,-15.21147 1.5347,-1.26998 2.24409,-1.08269 5.14522,1.35845 4.42838,3.72623 7.8818,4.48557 13.18038,2.89807 2.39436,-0.71736 4.57888,-1.0788 4.8545,-0.80318 0.27562,0.27562 -0.24901,2.29645 -1.16584,4.49073 -1.20204,2.87689 -2.84134,4.49114 -5.87764,5.78782 l -4.21068,1.79822 4.92799,10.19319 c 4.37261,9.04442 4.98212,11.22438 5.40824,19.343 0.44987,8.57128 0.26203,9.59303 -2.97088,16.16 -3.82379,7.76723 -9.62145,13.24952 -17.652,16.69182 -5.8,2.48617 -13.04462,4.54244 -42.18936,11.97476 -23.73521,6.05282 -32.89646,9.12704 -47.5817,15.96693 -14.10294,6.56867 -24.09978,13.48399 -27.38738,18.94524 -2.69215,4.47212 -6.94624,7.59228 -10.35145,7.59228 -0.97201,0 -3.25743,-1.49013 -5.0787,-3.3114 z"
     id="path5044"
     inkscape:connector-curvature="0" /><path
     style="opacity:0.78699999;fill:#1abb9c;fill-opacity:1;stroke:#000000;stroke-width:0;stroke-miterlimit:4;stroke-dasharray:none;stroke-dashoffset:0;stroke-opacity:1"
     d="m 292.65733,508.12837 c -5.93185,-7.0496 -1.62208,-17.45371 11.19358,-27.02212 15.89503,-11.86752 43.63552,-23.2419 75.20358,-30.83556 36.40546,-8.7573 43.99749,-11.66128 47.32888,-18.10348 2.15479,-4.16689 1.05805,-9.94476 -4.38233,-23.08736 -2.60078,-6.28279 -3.82458,-10.93591 -3.80839,-14.48013 0.0253,-5.53425 2.79482,-12.93556 5.75794,-15.38755 1.5347,-1.26998 2.24409,-1.08269 5.14522,1.35845 4.42838,3.72623 7.8818,4.48557 13.18038,2.89807 2.39436,-0.71736 4.57888,-1.0788 4.8545,-0.80318 0.27562,0.27562 -0.24901,2.29645 -1.16584,4.49073 -1.20713,2.8891 -2.84056,4.49081 -5.92149,5.80655 l -4.25453,1.81694 4.92881,9.79363 c 4.50451,8.95054 4.97372,10.63885 5.45049,19.61176 0.47601,8.95856 0.27726,10.3005 -2.2703,15.32786 -3.72485,7.35063 -7.62628,11.82581 -13.11268,15.04106 -6.51179,3.81617 -11.42461,5.39623 -37.60605,12.09491 -12.84796,3.28722 -27.27136,7.20485 -32.052,8.70585 -21.17868,6.64954 -42.9145,17.77123 -49.60311,25.3807 -9.11418,10.36898 -9.71064,10.874 -12.84283,10.874 -2.14845,0 -3.99026,-1.06436 -6.02383,-3.48113 z"
     id="path5046"
     inkscape:connector-curvature="0" /></svg>