<?xml version="1.0" encoding="UTF-8" standalone="no"?>
<svg
   xmlns:dc="http://purl.org/dc/elements/1.1/"
   xmlns:cc="http://creativecommons.org/ns#"
   xmlns:rdf="http://www.w3.org/1999/02/22-rdf-syntax-ns#"
   xmlns:svg="http://www.w3.org/2000/svg"
   xmlns="http://www.w3.org/2000/svg"
   xmlns:sodipodi="http://sodipodi.sourceforge.net/DTD/sodipodi-0.dtd"
   xmlns:inkscape="http://www.inkscape.org/namespaces/inkscape"
   width="1122.6245"
   height="1200.0106"
   viewBox="24.633 262.431 253.72571 271.32411"
   version="1.1"
   id="svg26"
   sodipodi:docname="ey_dark_no_text.svg"
   inkscape:version="0.92.2 (5c3e80d, 2017-08-06)">
  <metadata
     id="metadata32">
    <rdf:RDF>
      <cc:Work
         rdf:about="">
        <dc:format>image/svg+xml</dc:format>
        <dc:type
           rdf:resource="http://purl.org/dc/dcmitype/StillImage" />
        <dc:title></dc:title>
      </cc:Work>
    </rdf:RDF>
  </metadata>
  <defs
     id="defs30">
    <clipPath
       clipPathUnits="userSpaceOnUse"
       id="clipPath3817">
      <rect
         id="rect3819"
         width="276.26892"
         height="362.60294"
         x="15.56706"
         y="249.50597"
         style="stroke-width:0.22610141" />
    </clipPath>
    <clipPath
       clipPathUnits="userSpaceOnUse"
       id="clipPath3821">
      <rect
         id="rect3823"
         width="276.26892"
         height="362.60294"
         x="15.56706"
         y="249.50597"
         style="stroke-width:0.22610141" />
    </clipPath>
  </defs>
  <sodipodi:namedview
     pagecolor="#ffffff"
     bordercolor="#666666"
     borderopacity="1"
     objecttolerance="10"
     gridtolerance="10"
     guidetolerance="10"
     inkscape:pageopacity="0"
     inkscape:pageshadow="2"
     inkscape:window-width="1920"
     inkscape:window-height="1000"
     id="namedview28"
     showgrid="false"
     inkscape:zoom="0.5"
     inkscape:cx="794.5658"
     inkscape:cy="452.42366"
     inkscape:window-x="-11"
     inkscape:window-y="1069"
     inkscape:window-maximized="1"
     inkscape:current-layer="svg26"
     inkscape:pagecheckerboard="true" />
  <path
     d="M 278.46,262.431 24.633,355.149 278.46,310.32 Z"
     id="path22"
     clip-path="url(#clipPath3821)"
     inkscape:connector-curvature="0"
     transform="translate(-0.11278122)"
     style="fill:#ffe500"
     inkscape:export-xdpi="96"
     inkscape:export-ydpi="96" />
  <path
     d="m 322.23531,484.99857 c 0,-4.742 -3.214,-6.89294 -5.05,-7.66147 2.295,-1.21933 3.825,-3.96956 3.825,-6.72256 0,-5.661 -3.825,-8.88344 -10.557,-8.90005 l -14.381,-0.0355 v 34.119 l 14.382,0.0355 c 7.344,0.17113 11.781,-3.94892 11.781,-10.83492 z m -11.781,5.17292 -8.109,-0.02 v -9.639 l 8.109,0.02 c 3.366,0.008 5.202,1.69584 5.202,4.90884 0,2.907 -1.989,4.73809 -5.202,4.73016 z m -0.153,-15.30037 -7.956,-0.0196 v -7.344 l 7.65,0.0189 c 3.06,0.008 4.437,1.23495 4.437,3.68295 0.153,1.68338 -0.612,3.67049 -4.131,3.66181 z m 16.371,10.29139 v -14.076 l 6.12,0.0151 v 13.771 c 0,4.131 1.53,6.12377 4.59,6.13132 3.061,0.008 4.59,-1.97767 4.59,-6.10867 v -13.771 l 6.12,0.0151 v 24.939 l -6.12,-0.0151 v -1.989 c -1.529,1.67923 -3.519,2.59232 -5.967,2.58627 -8.109,-0.17201 -9.333,-7.21403 -9.333,-11.49803 z m 93.941,11.09582 -6.119,-0.0151 v -24.939 l 6.119,0.0151 v 2.143 c 1.53,-1.68023 3.673,-2.59294 6.273,-2.58652 5.967,0.0147 9.18,4.00165 9.18,11.34465 v 14.076 l -6.12,-0.0151 v -13.771 c 0,-4.131 -1.377,-6.1234 -4.437,-6.13095 -3.061,-0.008 -4.743,2.13129 -4.743,6.10829 v 13.771 z m -60.74,-12.84989 v 12.699 l -6.12,-0.0151 v -24.939 l 6.12,0.0151 z m 5.508,-19.57041 6.12,-3.04489 v 35.343 l -6.12,-0.0151 z m 25.704,9.09143 c -1.53,-1.53377 -3.366,-2.3043 -5.508,-2.30959 -5.968,-0.0147 -9.792,4.87184 -9.792,12.67484 0,8.263 3.672,13.32106 9.639,13.33578 2.142,0.005 3.978,-0.75618 5.661,-2.43403 v 1.836 l 6.12,0.0151 v -35.343 l -6.12,3.0449 z m -4.284,18.04243 c -2.142,-0.005 -4.743,-1.3887 -4.743,-7.6617 0,-5.813 2.448,-6.87896 4.59,-6.87368 2.295,0.006 3.672,1.38606 4.438,2.45895 v 9.792 c -0.919,1.06874 -1.99,2.29009 -4.285,2.28443 z m 138.465,-20.00732 c -1.989,-0.005 -3.978,0.90918 -5.508,2.28241 v -11.476 l -6.12,3.0459 v 31.518 l 6.12,0.0151 v -1.836 c 1.53,1.53377 3.519,2.45668 5.661,2.46197 6.12,0.0151 9.639,-4.87222 9.639,-13.28822 0,-7.803 -3.672,-12.70806 -9.792,-12.72316 z m -1.072,5.65836 c 2.295,0.006 4.591,1.84732 4.591,6.89732 0,5.201 -1.53,7.64523 -4.591,7.63768 -2.295,-0.006 -3.824,-1.53944 -4.437,-2.30595 v -9.792 c 1.072,-1.52736 2.601,-2.44159 4.437,-2.43705 z m -68.849,-3.5349 c -1.53,-1.53377 -3.366,-2.3043 -5.508,-2.30959 -5.967,-0.0147 -9.792,4.87184 -9.792,12.67484 0,8.263 3.672,13.32106 9.639,13.33578 2.143,0.005 4.131,-0.7558 5.661,-2.43403 v 0.612 c 0,2.754 0,6.426 -7.956,6.55937 l -0.306,-7.6e-4 2.142,4.90129 0.153,3.8e-4 c 8.108,-0.133 12.087,-4.10118 12.087,-12.36318 v -22.645 l -6.12,-0.0151 z m 0,5.813 v 9.792 c -0.918,1.22174 -2.142,2.44272 -4.437,2.43705 -2.143,-0.005 -4.591,-1.38833 -4.591,-7.66133 0,-5.813 2.448,-6.87896 4.591,-6.87367 2.295,-0.14733 3.672,1.23306 4.437,2.30595 z m 25.245,-1.3147 c 1.989,-1.06609 3.825,-1.67356 6.426,-1.66715 2.907,0.007 4.438,1.23496 4.438,3.52996 v 1.684 c -1.377,-0.7694 -3.52,-1.23369 -5.355,-1.23822 -4.59,-0.0113 -9.945,2.11846 -9.945,8.08446 0,6.426 5.05,8.88646 9.181,8.89666 1.683,0.004 4.284,-0.60143 5.967,-2.58728 v 1.989 l 6.12,0.0151 v -16.83 c 0,-5.354 -3.825,-8.73044 -10.099,-8.74592 -3.365,-0.008 -6.426,0.74914 -9.333,2.42497 z m 1.836,10.56153 c 0,-2.142 1.53,-3.51523 4.284,-3.50843 1.836,0.005 3.366,0.3143 4.896,1.23608 v 3.366 c -0.765,1.37511 -2.601,2.59558 -4.896,2.58992 -2.754,-0.007 -4.284,-1.38857 -4.284,-3.68357 z m 72.521,1.09695 c -1.07,1.06836 -2.601,2.13658 -4.896,2.13092 -1.224,-0.003 -5.202,-0.47184 -5.508,-5.52159 l 15.3,0.0378 v -1.836 c 0,-7.956 -4.131,-13.01619 -10.404,-13.03167 -6.426,-0.0159 -11.169,5.48144 -11.169,12.97844 0,7.803 4.59,13.01633 11.781,13.03407 3.213,0.008 6.426,-1.20914 8.721,-3.95748 z m -10.403,-7.82867 c 0.152,-3.05962 1.988,-5.19709 4.59,-5.19067 3.213,0.008 4.59,2.61332 4.743,5.2137 z m 69.768,7.97516 c -1.071,1.06836 -2.601,2.13659 -4.896,2.13092 -1.225,-0.003 -5.202,-0.47183 -5.509,-5.52159 l 15.301,0.0378 v -1.836 c 0,-7.956 -4.132,-13.0162 -10.404,-13.03168 -6.426,-0.0159 -11.169,5.48144 -11.169,12.97844 0,7.803 4.59,13.01633 11.781,13.03407 3.213,0.008 6.426,-1.20914 8.874,-3.9571 z m -10.404,-7.82867 c 0.152,-3.05962 1.988,-5.19709 4.59,-5.19067 3.213,0.008 4.59,2.61332 4.742,5.2137 z m -14.842,6.38938 c 0,2.143 0.766,3.36789 2.602,3.37242 1.224,0.003 2.601,-0.45259 3.672,-1.06194 l -0.766,5.81211 c -1.377,0.7616 -3.213,1.21607 -5.201,1.21116 -4.896,-0.0121 -6.579,-4.14723 -6.579,-7.66523 v -12.087 l -3.672,-0.009 v -5.814 l 3.824,0.009 v -6.426 l 6.12,-3.04489 v 9.485 l 5.661,0.014 v 5.814 l -5.661,-0.014 z m -11.933,8.07955 c -1.377,0.7616 -3.213,1.21607 -5.202,1.21116 -4.896,-0.0121 -6.579,-4.14723 -6.579,-7.66523 v -12.087 l -3.825,-0.009 v -5.814 l 3.825,0.009 v -6.426 l 6.12,-3.0449 v 9.485 l 5.202,0.0128 v 5.814 l -5.202,-0.0128 v 10.557 c 0,2.142 0.765,3.36789 2.601,3.37242 1.225,0.003 2.602,-0.45258 3.673,-1.06194 z m 60.741,-17.29211 a 6.7262939,6.7097163 45.035346 0 0 -4.132,-1.3872 c -3.06,-0.008 -4.437,1.82505 -4.437,5.80305 v 13.464 l -6.12,-0.0151 v -24.938 l 6.12,0.0151 v 2.142 c 1.53,-1.83222 3.366,-2.74569 5.508,-2.74041 1.684,0.004 3.52,0.61969 4.59,1.54133 z m -278.001,-14.30201 v 3.06 l -6.12,-0.0151 v -6.12 l 6.12,0.0151 z m 42.84,6.83672 6.12,0.0151 v 24.939 l -6.12,-0.0151 z m 6.12,-6.7159 v 3.06 l -6.12,-0.0151 v -6.12 l 6.12,0.0151 z m 169.065,52.43619 c -1.529,-1.53378 -3.366,-2.30331 -5.508,-2.30859 -5.967,-0.0147 -9.792,4.87183 -9.792,12.67483 0,8.262 3.672,13.32006 9.639,13.33479 2.143,0.005 3.979,-0.75518 5.661,-2.43303 v 1.836 l 6.12,0.0151 v -35.344 l -6.12,3.0459 z m -4.285,18.04342 c -2.142,-0.005 -4.742,-1.3887 -4.742,-7.6607 0,-5.814 2.447,-6.87896 4.59,-6.87367 2.295,0.006 3.672,1.38606 4.437,2.45795 v 9.792 c -0.918,0.91573 -1.99,2.29009 -4.285,2.28442 z m -204.714,-13.35716 a 6.7212877,6.7047225 45.035346 0 0 -4.131,-1.38719 c -3.06,-0.008 -4.437,1.82505 -4.437,5.80205 v 13.465 l -6.12,-0.0151 v -24.939 l 6.12,0.0151 v 2.142 c 1.529,-1.83223 3.365,-2.74569 5.508,-2.74041 1.683,0.004 3.519,0.62069 4.59,1.54133 z m -48.501,-7.15768 6.12,0.0151 -7.038,24.92164 -5.354,-0.0132 -2.754,-10.4108 c -0.459,-1.83713 -1.071,-3.98164 -1.377,-5.3584 -0.307,1.07024 -0.918,4.12874 -1.377,5.6576 l -2.754,10.09221 -5.202,-0.0128 -7.038,-24.95637 6.272,0.0155 2.296,9.33867 c 0.306,1.53075 0.918,4.28626 1.224,6.12302 0.306,-1.83525 1.071,-4.58736 1.53,-6.26923 l 2.601,-9.17358 5.202,0.0128 2.601,9.18642 c 0.459,1.68513 1.071,4.28664 1.53,6.27677 0.306,-1.52924 0.765,-3.97711 1.377,-6.2696 z m 18.667,-0.41293 c -6.578,-0.0162 -11.321,5.48006 -11.321,12.97706 0,7.497 4.743,13.0167 11.321,13.03294 6.579,0.0162 11.322,-5.48007 11.322,-12.97707 0,-7.649 -4.743,-13.0167 -11.322,-13.03293 z m 0,20.197 c -3.06,-0.008 -5.049,-2.91946 -5.049,-7.20346 0,-4.437 1.989,-7.1851 5.049,-7.17754 3.061,0.008 5.05,2.91846 5.05,7.20246 0,4.284 -1.99,7.18609 -5.05,7.17854 z m 208.539,-12.18541 a 6.7212877,6.7047225 45.035346 0 0 -4.131,-1.38719 c -3.06,-0.008 -4.437,1.82505 -4.437,5.80205 v 13.465 l -6.12,-0.0151 v -24.939 l 6.12,0.0151 v 2.142 c 1.529,-1.83223 3.365,-2.7457 5.508,-2.74041 1.683,0.004 3.519,0.62069 4.59,1.54133 z m -48.348,-7.1573 6.12,0.0151 -7.038,24.92163 -5.355,-0.0132 -2.754,-10.4108 c -0.459,-1.83713 -1.071,-3.98164 -1.377,-5.3584 -0.306,1.07025 -0.918,4.12874 -1.377,5.65761 l -2.754,10.0922 -5.355,-0.0132 v -0.153 l -7.037,-24.80337 6.272,0.0155 2.295,9.33866 c 0.307,1.53076 0.918,4.28627 1.225,6.12302 0.306,-1.83524 1.07,-4.58735 1.529,-6.26922 l 2.602,-9.17358 5.202,0.0128 2.601,9.18641 c 0.459,1.68514 1.071,4.28665 1.53,6.27678 0.306,-1.52925 0.765,-3.97711 1.377,-6.2696 z m 18.513,-0.41332 c -6.579,-0.0162 -11.322,5.48006 -11.322,12.97706 0,7.497 4.743,13.01671 11.322,13.03294 6.579,0.0162 11.322,-5.48006 11.322,-12.97706 0,-7.497 -4.743,-13.0167 -11.322,-13.03294 z m 0,20.197 c -3.06,-0.008 -5.049,-2.76646 -5.049,-7.20346 0,-4.437 1.989,-7.18509 5.049,-7.17754 3.061,0.008 5.049,2.91846 5.049,7.20246 0,4.284 -1.989,7.18609 -5.049,7.17854 z m -130.509,-11.79805 7.65,16.69688 -6.732,-0.0166 -5.202,-11.64184 -3.213,4.12407 v 7.497 l -6.12,-0.0151 v -32.131 l 6.12,-3.0449 v 19.89 a 80.238939,80.041183 45.035346 0 1 2.295,-3.05433 l 4.896,-6.41392 7.038,0.0174 z m 29.222,16.75011 -6.12,-0.0151 v -24.94 l 6.12,0.0151 v 2.142 c 1.53,-1.67922 3.672,-2.59194 6.273,-2.58552 5.967,0.0147 9.18,4.00165 9.18,11.34465 v 14.076 l -6.12,-0.0151 v -13.771 c 0,-4.131 -1.377,-6.1234 -4.437,-6.13095 -3.061,-0.008 -4.743,2.1313 -4.743,6.1083 v 13.771 l -0.153,-3.8e-4 z m 34.732,-23.01829 c -1.53,-1.53378 -3.366,-2.30331 -5.508,-2.30859 -5.968,-0.0147 -9.792,4.87183 -9.792,12.67483 0,8.262 3.672,13.32006 9.639,13.33479 2.142,0.005 4.131,-0.75481 5.661,-2.43303 v 0.611 c 0,2.754 0,6.426 -7.956,6.55937 l -0.307,-7.6e-4 2.143,4.90129 0.153,3.7e-4 c 8.108,-0.13299 12.087,-4.10217 12.087,-12.36417 v -22.644 l -6.12,-0.0151 z m 0,5.815 v 9.792 c -0.918,1.22173 -2.143,2.44171 -4.438,2.43605 -2.142,-0.005 -4.59,-1.38833 -4.59,-7.66033 0,-5.814 2.448,-6.87896 4.59,-6.87367 2.295,-0.14834 3.672,1.23206 4.438,2.30595 z m -52.632,-7.78088 6.12,0.0151 v 24.94 l -6.12,-0.0151 z m 6.12,-6.5639 v 3.061 l -6.12,-0.0151 v -6.12 l 6.12,0.0151 z m 147.491,-0.24804 6.12,-3.0449 v 35.191 l -6.12,-0.0151 z m -437.12,-19.59165 46.358,0.11439 v -26.928 l -46.358,-0.11439 v -21.114 l 51.407,0.12685 -16.982,-29.72391 -72.827997,-0.17971 v 128.368 l 102.662997,0.25334 v -29.53 l -64.26,-0.15857 z m 132.651,-77.39667 -21.726,41.86839 -21.727,-41.97562 -42.687,-0.10533 44.829,77.83462 v 50.644 l 38.403,0.0948 v -50.644 l 44.828,-77.61338 z"
     id="path24"
     inkscape:connector-curvature="0"
     style="opacity:0.98999999;fill:#58595b"
     clip-path="url(#clipPath3817)"
     transform="translate(-47.733656,-16.265993)"
     inkscape:export-xdpi="96"
     inkscape:export-ydpi="96" />
  <path
     style="opacity:0.98999999;fill:#ffffff;fill-opacity:0.99215686;stroke-width:2"
     d="m 20.365802,867.37506 v -283.0119 l 160.432218,0.5119 160.43222,0.5119 36.556,64 36.55598,64 -112.9882,0.51651 -112.98822,0.51652 v 46.98348 46.98349 l 91.5,0.018 c 50.325,0.01 96.225,0.58492 102,1.27858 l 10.5,1.2612 v 57.72142 57.72142 H 290.3296 188.29341 l 0.53619,47.5 0.5362,47.50002 141.5,0.5134 141.5,0.5134 v 63.9866 63.986 h -226 -225.999998 z"
     id="path4630"
     inkscape:connector-curvature="0"
     transform="matrix(0.22610142,0,0,0.22610142,24.582355,262.431)"
     inkscape:export-xdpi="96"
     inkscape:export-ydpi="96" />
  <path
     style="opacity:0.98999999;fill:#ffffff;fill-opacity:0.99215686;stroke-width:0.60000001;stroke:#ffffff;stroke-miterlimit:4;stroke-dasharray:none"
     d="m 644.8658,1150.8885 -50.5,-0.5702 V 1039.3414 928.36448 L 499.12269,762.87572 C 446.73899,671.8569 402.11005,594.45301 399.94728,590.86707 l -3.9323,-6.51989 93.5761,0.51989 93.5761,0.51989 47.37016,91.61848 c 26.05358,50.39017 48.1238,91.6693 49.04492,91.7314 0.9211,0.0621 22.87728,-40.7162 48.79146,-90.61848 l 47.11672,-90.7314 91.43768,-0.52017 c 50.29072,-0.2861 91.43768,-0.0726 91.43768,0.47447 0,0.54705 -44.1,77.34399 -98,170.65987 l -98,169.66523 v 112.36034 112.3603 l -33.5,-0.4641 c -18.425,-0.2553 -56.225,-0.7207 -84,-1.0344 z"
     id="path4634"
     inkscape:connector-curvature="0"
     transform="matrix(0.22610142,0,0,0.22610142,24.582355,262.431)"
     inkscape:export-xdpi="96"
     inkscape:export-ydpi="96" />
</svg>
